<svg width="112" height="40" viewBox="0 0 112 40" fill="none" xmlns="http://www.w3.org/2000/svg">
<g clip-path="url(#clip0_2917_6136)">
<mask id="path-2-inside-1_2917_6136" fill="white">
<path fill-rule="evenodd" clip-rule="evenodd" d="M8 4C3.58172 4 0 7.58172 0 12V28C0 32.4183 3.58172 36 8 36H24C28.4183 36 32 32.4183 32 28V12C32 7.58172 28.4183 4 24 4H8ZM8 5.5C4.41015 5.5 1.5 8.41015 1.5 12V28C1.5 31.5899 4.41015 34.5 8 34.5H24C27.5899 34.5 30.5 31.5899 30.5 28V12C30.5 8.41015 27.5899 5.5 24 5.5H8Z"/>
</mask>
<path fill-rule="evenodd" clip-rule="evenodd" d="M8 4C3.58172 4 0 7.58172 0 12V28C0 32.4183 3.58172 36 8 36H24C28.4183 36 32 32.4183 32 28V12C32 7.58172 28.4183 4 24 4H8ZM8 5.5C4.41015 5.5 1.5 8.41015 1.5 12V28C1.5 31.5899 4.41015 34.5 8 34.5H24C27.5899 34.5 30.5 31.5899 30.5 28V12C30.5 8.41015 27.5899 5.5 24 5.5H8Z" fill="black"/>
<path d="M1.5 12C1.5 8.41015 4.41015 5.5 8 5.5V2.5C2.75329 2.5 -1.5 6.75329 -1.5 12H1.5ZM1.5 28V12H-1.5V28H1.5ZM8 34.5C4.41015 34.5 1.5 31.5899 1.5 28H-1.5C-1.5 33.2467 2.75329 37.5 8 37.5V34.5ZM24 34.5H8V37.5H24V34.5ZM30.5 28C30.5 31.5899 27.5899 34.5 24 34.5V37.5C29.2467 37.5 33.5 33.2467 33.5 28H30.5ZM30.5 12V28H33.5V12H30.5ZM24 5.5C27.5899 5.5 30.5 8.41015 30.5 12H33.5C33.5 6.75329 29.2467 2.5 24 2.5V5.5ZM8 5.5H24V2.5H8V5.5ZM3 12C3 9.23858 5.23858 7 8 7V4C3.58172 4 0 7.58172 0 12H3ZM3 28V12H0V28H3ZM8 33C5.23858 33 3 30.7614 3 28H0C0 32.4183 3.58172 36 8 36V33ZM24 33H8V36H24V33ZM29 28C29 30.7614 26.7614 33 24 33V36C28.4183 36 32 32.4183 32 28H29ZM29 12V28H32V12H29ZM24 7C26.7614 7 29 9.23858 29 12H32C32 7.58172 28.4183 4 24 4V7ZM8 7H24V4H8V7Z" fill="#A0CAAC" mask="url(#path-2-inside-1_2917_6136)"/>
<rect x="3" y="7" width="26" height="26" rx="6" fill="url(#paint0_linear_2917_6136)"/>
<mask id="mask0_2917_6136" style="mask-type:alpha" maskUnits="userSpaceOnUse" x="3" y="7" width="26" height="26">
<rect x="3" y="6.99997" width="26" height="26" rx="6" fill="url(#paint1_linear_2917_6136)"/>
</mask>
<g mask="url(#mask0_2917_6136)">
<g filter="url(#filter0_if_2917_6136)">
<path d="M0 4L9.5 13.5H17L34.5 34.5L26 36.5H17.5L0 36V4Z" fill="url(#paint2_linear_2917_6136)"/>
</g>
<line x1="17.9181" y1="2.82711" x2="-11.1712" y2="37.4943" stroke="white" stroke-opacity="0.2" stroke-width="0.5"/>
<line x1="43.7167" y1="37.4943" x2="14.6274" y2="2.8271" stroke="white" stroke-opacity="0.2" stroke-width="0.5"/>
</g>
<path d="M14.3463 10.5072C15.0814 9.58851 16.919 9.58851 17.654 10.5072L25.9233 20.8421C26.6583 21.7608 25.7395 22.9091 24.2694 22.9091H7.73091C6.26082 22.9091 5.34201 21.7608 6.07706 20.8421L14.3463 10.5072Z" fill="white"/>
<g filter="url(#filter1_d_2917_6136)">
<path d="M14.5826 18.7943C15.2127 17.9777 16.7878 17.9777 17.4178 18.7943L24.5058 27.9809C25.1358 28.7975 24.3482 29.8182 23.0882 29.8182H8.91228C7.6522 29.8182 6.86465 28.7975 7.49469 27.9809L14.5826 18.7943Z" fill="white"/>
</g>
</g>
<path d="M52.0992 28.2852L51.069 25.4727H44.739L43.6859 28.2852H40L46.5246 11.4805H49.3291L55.8766 28.2852H52.0992ZM45.8836 22.4258H49.9243L47.9326 17.0586L45.8836 22.4258Z" fill="#062A12"/>
<path d="M65.0226 16.4961H68.3307V28.2852H65.0226V26.8906C64.6944 27.3906 64.248 27.7891 63.6833 28.0859C63.1262 28.375 62.5272 28.5195 61.8862 28.5195C60.4286 28.5195 59.2801 28.043 58.4407 27.0898C57.6089 26.1367 57.193 24.8242 57.193 23.1523V16.4961H60.5011V22.6016C60.5011 23.4062 60.6995 24.0312 61.0963 24.4766C61.5008 24.9219 62.0464 25.1445 62.7332 25.1445C63.1835 25.1445 63.6146 25.0273 64.0267 24.793C64.4464 24.5508 64.7784 24.2266 65.0226 23.8203V16.4961Z" fill="#062A12"/>
<path d="M76.7326 16.2617C77.3202 16.2617 77.7895 16.332 78.1405 16.4727L77.9459 19.6484C77.4576 19.4688 76.9653 19.3789 76.4693 19.3789C76.0572 19.3789 75.5994 19.543 75.0957 19.8711C74.5997 20.1914 74.2219 20.6211 73.9625 21.1602V28.2852H70.6544V16.4961H73.9625V17.8906C74.2296 17.4062 74.6302 17.0156 75.1644 16.7188C75.7062 16.4141 76.2289 16.2617 76.7326 16.2617Z" fill="#062A12"/>
<path d="M84.3676 16.2617C85.1994 16.2617 85.9816 16.418 86.7141 16.7305C87.4544 17.043 88.0878 17.4727 88.6143 18.0195C89.1485 18.5586 89.5682 19.2109 89.8735 19.9766C90.1863 20.7344 90.3428 21.543 90.3428 22.4023C90.3428 23.5508 90.0795 24.5938 89.5529 25.5312C89.034 26.4688 88.3167 27.2031 87.401 27.7344C86.4928 28.2578 85.4817 28.5195 84.3676 28.5195C82.6658 28.5195 81.2426 27.9375 80.0979 26.7734C78.9533 25.6094 78.3809 24.1523 78.3809 22.4023C78.3809 20.6523 78.9533 19.1914 80.0979 18.0195C81.2426 16.8477 82.6658 16.2617 84.3676 16.2617ZM84.3676 19.4961C83.5816 19.4961 82.9253 19.7734 82.3987 20.3281C81.8798 20.875 81.6203 21.5664 81.6203 22.4023C81.6203 23.2148 81.8798 23.8984 82.3987 24.4531C82.9253 25.0078 83.5816 25.2852 84.3676 25.2852C85.1383 25.2852 85.787 25.0078 86.3135 24.4531C86.8401 23.8984 87.1033 23.2148 87.1033 22.4023C87.1033 21.5664 86.8401 20.875 86.3135 20.3281C85.7946 19.7734 85.1459 19.4961 84.3676 19.4961Z" fill="#062A12"/>
<path d="M98.2754 16.2617C98.863 16.2617 99.3323 16.332 99.6833 16.4727L99.4887 19.6484C99.0003 19.4688 98.5081 19.3789 98.0121 19.3789C97.6 19.3789 97.1421 19.543 96.6385 19.8711C96.1424 20.1914 95.7647 20.6211 95.5052 21.1602V28.2852H92.1971V16.4961H95.5052V17.8906C95.7723 17.4062 96.173 17.0156 96.7072 16.7188C97.249 16.4141 97.7717 16.2617 98.2754 16.2617Z" fill="#062A12"/>
<path d="M108.692 16.4961H112V28.2852H108.692V26.8906C108.41 27.375 107.952 27.7695 107.318 28.0742C106.693 28.3711 106.017 28.5195 105.292 28.5195C104.308 28.5195 103.403 28.2461 102.579 27.6992C101.755 27.1523 101.107 26.4102 100.633 25.4727C100.16 24.5273 99.9237 23.4961 99.9237 22.3789C99.9237 20.6758 100.443 19.2305 101.48 18.043C102.526 16.8555 103.797 16.2617 105.292 16.2617C106.01 16.2617 106.685 16.4141 107.318 16.7188C107.952 17.0234 108.41 17.4141 108.692 17.8906V16.4961ZM106.025 25.3086C106.582 25.3086 107.101 25.1719 107.582 24.8984C108.07 24.625 108.44 24.2734 108.692 23.8438V20.9609C108.44 20.5156 108.07 20.1523 107.582 19.8711C107.101 19.5898 106.582 19.4492 106.025 19.4492C105.216 19.4492 104.537 19.7305 103.987 20.293C103.438 20.8477 103.163 21.543 103.163 22.3789C103.163 23.2148 103.438 23.9141 103.987 24.4766C104.537 25.0312 105.216 25.3086 106.025 25.3086Z" fill="#062A12"/>
<defs>
<filter id="filter0_if_2917_6136" x="-4" y="0" width="42.5" height="40.5" filterUnits="userSpaceOnUse" color-interpolation-filters="sRGB">
<feFlood flood-opacity="0" result="BackgroundImageFix"/>
<feBlend mode="normal" in="SourceGraphic" in2="BackgroundImageFix" result="shape"/>
<feColorMatrix in="SourceAlpha" type="matrix" values="0 0 0 0 0 0 0 0 0 0 0 0 0 0 0 0 0 0 127 0" result="hardAlpha"/>
<feOffset dy="4"/>
<feGaussianBlur stdDeviation="2"/>
<feComposite in2="hardAlpha" operator="arithmetic" k2="-1" k3="1"/>
<feColorMatrix type="matrix" values="0 0 0 0 0.0705882 0 0 0 0 0.537255 0 0 0 0 0.541176 0 0 0 0.3 0"/>
<feBlend mode="normal" in2="shape" result="effect1_innerShadow_2917_6136"/>
<feGaussianBlur stdDeviation="2" result="effect2_foregroundBlur_2917_6136"/>
</filter>
<filter id="filter1_d_2917_6136" x="5.27295" y="14.1818" width="21.4546" height="15.6364" filterUnits="userSpaceOnUse" color-interpolation-filters="sRGB">
<feFlood flood-opacity="0" result="BackgroundImageFix"/>
<feColorMatrix in="SourceAlpha" type="matrix" values="0 0 0 0 0 0 0 0 0 0 0 0 0 0 0 0 0 0 127 0" result="hardAlpha"/>
<feOffset dy="-2"/>
<feGaussianBlur stdDeviation="1"/>
<feComposite in2="hardAlpha" operator="out"/>
<feColorMatrix type="matrix" values="0 0 0 0 0.0746814 0 0 0 0 0.416826 0 0 0 0 0.405325 0 0 0 0.7 0"/>
<feBlend mode="normal" in2="BackgroundImageFix" result="effect1_dropShadow_2917_6136"/>
<feBlend mode="normal" in="SourceGraphic" in2="effect1_dropShadow_2917_6136" result="shape"/>
</filter>
<linearGradient id="paint0_linear_2917_6136" x1="2.59375" y1="-1.125" x2="16" y2="33" gradientUnits="userSpaceOnUse">
<stop stop-color="#ACE348"/>
<stop offset="1" stop-color="#25ACA0"/>
</linearGradient>
<linearGradient id="paint1_linear_2917_6136" x1="2.59375" y1="-1.12503" x2="16" y2="33" gradientUnits="userSpaceOnUse">
<stop stop-color="#ACE348"/>
<stop offset="1" stop-color="#25ACA0"/>
</linearGradient>
<linearGradient id="paint2_linear_2917_6136" x1="18" y1="24.5" x2="-1.12454e-06" y2="36" gradientUnits="userSpaceOnUse">
<stop stop-color="#12898A"/>
<stop offset="1" stop-color="#ACE348" stop-opacity="0"/>
</linearGradient>
<clipPath id="clip0_2917_6136">
<rect y="4" width="32" height="32" rx="8" fill="white"/>
</clipPath>
</defs>
</svg>
