<svg width="111" height="24" viewBox="0 0 111 24" fill="none" xmlns="http://www.w3.org/2000/svg">
<path d="M17.775 10.6968C17.4745 11.0018 17.2444 11.37 17.1011 11.775C16.9577 12.18 16.9047 12.6119 16.9457 13.04L16.9314 13.0256C16.9736 13.5295 16.9062 14.0366 16.7341 14.5115C16.5619 14.9864 16.2892 15.4177 15.9349 15.7753C15.5805 16.1328 15.153 16.4081 14.6823 16.5817C14.2117 16.7554 13.7091 16.8234 13.2097 16.7808L13.224 16.7952C12.6267 16.7391 12.0267 16.8702 11.5059 17.1708C10.9851 17.4714 10.5689 17.9266 10.314 18.4746C10.0591 19.0226 9.97781 19.6366 10.0814 20.2329C10.185 20.8291 10.4683 21.3786 10.8927 21.8065C11.3171 22.2343 11.862 22.5197 12.453 22.6236C13.044 22.7276 13.6524 22.645 14.1953 22.3874C14.7381 22.1296 15.1889 21.7093 15.4863 21.1835C15.7837 20.6578 15.9132 20.0523 15.8571 19.4496L15.8721 19.464C15.83 18.9602 15.8973 18.453 16.0694 17.9781C16.2415 17.5032 16.5144 17.0719 16.8687 16.7143C17.2231 16.3568 17.6505 16.0815 18.1212 15.9079C18.5919 15.7342 19.0944 15.6662 19.5938 15.7088L19.5788 15.6944C20.0667 15.7386 20.5579 15.6579 21.0067 15.4597C21.4554 15.2614 21.8474 14.9521 22.1462 14.5603C22.4449 14.1686 22.6409 13.707 22.7158 13.2185C22.7907 12.7299 22.7422 12.2302 22.5747 11.7656C22.4073 11.301 22.1263 10.8866 21.7578 10.5608C21.3894 10.235 20.9454 10.0082 20.467 9.90168C19.9886 9.79512 19.4912 9.81208 19.0211 9.95104C18.5509 10.0901 18.1231 10.3466 17.7774 10.6968H17.775Z" fill="#041109"/>
<path d="M11.9263 14.9088L11.9113 14.8944C12.3357 14.9375 12.7643 14.885 13.1662 14.7405C13.568 14.596 13.9331 14.3633 14.2348 14.059C14.5365 13.7548 14.7675 13.3866 14.911 12.9813C15.0545 12.5759 15.1069 12.1435 15.0645 11.7152L15.0795 11.7296C15.0374 11.2257 15.1047 10.7186 15.2768 10.2437C15.4489 9.7688 15.7217 9.33752 16.0761 8.97992C16.4305 8.6224 16.8579 8.34712 17.3286 8.17352C17.7993 7.99981 18.3018 7.93186 18.8012 7.9744L18.7861 7.96C19.3836 8.01664 19.9837 7.88589 20.5047 7.58568C21.0259 7.28547 21.4425 6.83038 21.6978 6.28248C21.9531 5.73459 22.0346 5.12057 21.9314 4.52416C21.8282 3.92775 21.5451 3.37801 21.1208 2.9499C20.6965 2.52179 20.1517 2.23616 19.5606 2.13198C18.9695 2.0278 18.361 2.11013 17.818 2.36774C17.275 2.62535 16.824 3.04571 16.5264 3.57148C16.2289 4.09724 16.0993 4.70282 16.1554 5.3056L16.1412 5.2904C16.1834 5.79431 16.1162 6.30146 15.9441 6.77644C15.7721 7.25142 15.4993 7.68277 15.1449 8.0404C14.7905 8.39792 14.363 8.6732 13.8923 8.8468C13.4215 9.0204 12.9189 9.08824 12.4195 9.0456L12.4338 9.0608C12.0094 9.01768 11.5807 9.07024 11.1788 9.21472C10.777 9.35912 10.412 9.59192 10.1102 9.89616C9.80846 10.2004 9.5775 10.5686 9.434 10.9739C9.29057 11.3793 9.23816 11.8117 9.28058 12.24L9.26631 12.2256C9.30833 12.7294 9.24086 13.2365 9.06873 13.7114C8.89652 14.1862 8.62378 14.6174 8.26945 14.975C7.91509 15.3325 7.48771 15.6077 7.0171 15.7814C6.54649 15.9551 6.04398 16.0232 5.54464 15.9808L5.55891 15.9952C4.9615 15.9386 4.36134 16.0693 3.84026 16.3695C3.3192 16.6698 2.90259 17.1248 2.64728 17.6727C2.39197 18.2206 2.31036 18.8346 2.41362 19.431C2.51687 20.0274 2.79995 20.5772 3.22424 21.0053C3.64853 21.4334 4.19336 21.719 4.78444 21.8232C5.37553 21.9274 5.98407 21.845 6.52707 21.5874C7.07007 21.3298 7.5211 20.9095 7.81863 20.3838C8.11619 19.8579 8.24574 19.2524 8.18961 18.6496L8.20467 18.664C8.16249 18.1601 8.22988 17.653 8.40201 17.1781C8.57406 16.7032 8.84689 16.2719 9.20121 15.9143C9.55562 15.5568 9.98305 15.2815 10.4537 15.1079C10.9244 14.9342 11.4269 14.8662 11.9263 14.9088Z" fill="#041109"/>
<path d="M6.61225 13.3032C6.91276 12.9982 7.14283 12.6301 7.28605 12.225C7.42927 11.82 7.48211 11.388 7.44078 10.96L7.45584 10.9744C7.41366 10.4704 7.48102 9.96312 7.65324 9.48808C7.82545 9.01304 8.09838 8.58168 8.45294 8.22408C8.80751 7.8665 9.2351 7.59131 9.70598 7.41775C10.1769 7.24418 10.6796 7.17642 11.1791 7.2192L11.164 7.2048C11.7612 7.26126 12.3612 7.13047 12.882 6.83028C13.4028 6.53009 13.8192 6.07511 14.0744 5.52739C14.3295 4.97966 14.411 4.36586 14.3078 3.76968C14.2046 3.17349 13.9215 2.62396 13.4974 2.196C13.0733 1.76805 12.5286 1.48252 11.9378 1.37834C11.347 1.27416 10.7386 1.35641 10.1958 1.61387C9.65293 1.87132 9.20204 2.29146 8.90456 2.81698C8.607 3.3425 8.47736 3.94783 8.53334 4.5504L8.51907 4.536C8.56125 5.03988 8.49386 5.54698 8.32173 6.02189C8.1496 6.4968 7.87687 6.92809 7.52249 7.28566C7.16813 7.64323 6.74068 7.91845 6.27001 8.09208C5.79934 8.26576 5.29678 8.33376 4.7974 8.2912L4.81167 8.3056C4.32372 8.26144 3.83262 8.34232 3.38388 8.54064C2.93513 8.73896 2.54326 9.0484 2.24459 9.44024C1.94591 9.832 1.75009 10.2936 1.67526 10.7821C1.60044 11.2706 1.64903 11.7703 1.81654 12.2348C1.98405 12.6994 2.26506 13.1137 2.63352 13.4394C3.00199 13.7653 3.44599 13.9919 3.92438 14.0985C4.40277 14.205 4.90007 14.1879 5.37021 14.049C5.84035 13.9099 6.26809 13.6534 6.61383 13.3032H6.61225Z" fill="#041109"/>
<path d="M31.1729 5.32401H33.5276V16.8864H31.1729V5.32401Z" fill="#041109"/>
<path d="M34.861 12.9272C34.8577 12.0963 35.0989 11.283 35.554 10.5906C36.0091 9.89809 36.6576 9.35745 37.4175 9.03721C38.1774 8.71689 39.0143 8.63137 39.8224 8.79145C40.6305 8.95153 41.3733 9.34993 41.9568 9.93633C42.5402 10.5226 42.9381 11.2706 43.1 12.0853C43.2619 12.9 43.1805 13.7449 42.8661 14.5129C42.5517 15.2808 42.0185 15.9374 41.3341 16.3994C40.6495 16.8614 39.8446 17.108 39.0211 17.108C38.4745 17.1143 37.9321 17.0106 37.4256 16.8029C36.9191 16.5952 36.4588 16.2878 36.0715 15.8986C35.6841 15.5093 35.3776 15.046 35.1698 14.5358C34.9619 14.0257 34.8569 13.4788 34.861 12.9272ZM40.8264 12.9272C40.8166 12.569 40.7023 12.2218 40.498 11.9287C40.2936 11.6358 40.0082 11.41 39.6774 11.2798C39.3465 11.1496 38.9851 11.1206 38.638 11.1966C38.291 11.2726 37.9739 11.4501 37.7263 11.707C37.4787 11.9638 37.3116 12.2886 37.246 12.6407C37.1804 12.9928 37.219 13.3566 37.3572 13.6867C37.4954 14.0168 37.7269 14.2984 38.0228 14.4964C38.3188 14.6944 38.666 14.8 39.0211 14.8C39.2642 14.8066 39.5061 14.7622 39.7315 14.6697C39.9569 14.5772 40.1608 14.4386 40.3304 14.2627C40.5 14.0867 40.6317 13.8772 40.717 13.6474C40.8024 13.4175 40.8396 13.1723 40.8264 12.9272Z" fill="#041109"/>
<path d="M52.5666 8.96721V16.4872C52.5666 19.148 50.5099 20.2728 48.4223 20.2728C47.6873 20.3283 46.9513 20.1785 46.2951 19.8398C45.6389 19.5011 45.0878 18.9866 44.7022 18.3528L46.7113 17.1808C46.8734 17.5112 47.1316 17.7838 47.4514 17.9621C47.7712 18.1403 48.1373 18.2158 48.5008 18.1784C48.7331 18.2109 48.9697 18.1902 49.193 18.118C49.4163 18.0458 49.6207 17.9238 49.791 17.7611C49.9613 17.5984 50.0932 17.3992 50.1769 17.1781C50.2605 16.957 50.2938 16.7198 50.2744 16.484V15.76C49.9987 16.1004 49.6477 16.3709 49.2496 16.5497C48.8515 16.7285 48.4175 16.8106 47.9823 16.7896C46.9466 16.7566 45.9644 16.3184 45.2433 15.5675C44.5223 14.8167 44.1191 13.8122 44.1191 12.7668C44.1191 11.7214 44.5223 10.7169 45.2433 9.96609C45.9644 9.21521 46.9466 8.77697 47.9823 8.74401C48.4175 8.72297 48.8515 8.80513 49.2496 8.98393C49.6477 9.16273 49.9987 9.43321 50.2744 9.77361V8.96561L52.5666 8.96721ZM50.2752 12.768C50.2911 12.3851 50.1929 12.0062 49.9935 11.68C49.7941 11.3538 49.5025 11.0953 49.1562 10.9378C48.81 10.7802 48.425 10.7308 48.0507 10.7959C47.6764 10.861 47.33 11.0377 47.056 11.3032C46.782 11.5686 46.5931 11.9107 46.5134 12.2854C46.4338 12.6602 46.4671 13.0504 46.6092 13.4058C46.7512 13.7613 46.9954 14.0658 47.3103 14.28C47.6252 14.4942 47.9965 14.6085 48.3763 14.608C48.6238 14.6254 48.872 14.5904 49.1052 14.5051C49.3384 14.4198 49.5512 14.2862 49.7301 14.1129C49.909 13.9395 50.05 13.7303 50.1438 13.4986C50.2377 13.267 50.2825 13.0182 50.2752 12.768Z" fill="#041109"/>
<path d="M53.9 12.9272C53.8968 12.0963 54.1379 11.283 54.5931 10.5906C55.0482 9.89809 55.6967 9.35745 56.4566 9.03721C57.2165 8.71689 58.0534 8.63137 58.8615 8.79145C59.6696 8.95153 60.4124 9.34993 60.9958 9.93633C61.5793 10.5226 61.9772 11.2706 62.1391 12.0853C62.301 12.9 62.2195 13.7449 61.9052 14.5129C61.5908 15.2808 61.0576 15.9374 60.3731 16.3994C59.6886 16.8614 58.8837 17.108 58.0601 17.108C57.5135 17.1143 56.9711 17.0106 56.4647 16.8029C55.9582 16.5952 55.4979 16.2878 55.1105 15.8986C54.7232 15.5093 54.4166 15.046 54.2088 14.5358C54.0009 14.0257 53.896 13.4788 53.9 12.9272ZM59.8655 12.9272C59.8556 12.569 59.7414 12.2218 59.5371 11.9287C59.3327 11.6358 59.0472 11.41 58.7165 11.2798C58.3856 11.1496 58.0241 11.1206 57.6771 11.1966C57.3301 11.2726 57.0129 11.4501 56.7653 11.707C56.5178 11.9638 56.3507 12.2886 56.285 12.6407C56.2194 12.9928 56.2581 13.3566 56.3962 13.6867C56.5344 14.0168 56.766 14.2984 57.0619 14.4964C57.3578 14.6944 57.705 14.8 58.0601 14.8C58.3033 14.8066 58.5452 14.7622 58.7705 14.6697C58.9959 14.5772 59.1999 14.4386 59.3695 14.2627C59.5391 14.0867 59.6707 13.8772 59.7561 13.6474C59.8414 13.4175 59.8787 13.1723 59.8655 12.9272Z" fill="#041109"/>
<path d="M63.3184 6.84481C63.3184 6.56285 63.4012 6.28722 63.5565 6.05279C63.7117 5.81835 63.9324 5.63562 64.1906 5.52773C64.4487 5.41982 64.7328 5.39159 65.0069 5.4466C65.2809 5.50161 65.5327 5.63738 65.7303 5.83676C65.9279 6.03613 66.0624 6.29014 66.117 6.56669C66.1715 6.84322 66.1435 7.12986 66.0366 7.39036C65.9296 7.65085 65.7485 7.8735 65.5162 8.03017C65.2839 8.18681 65.0107 8.27041 64.7312 8.27041C64.3577 8.26665 64.0005 8.11529 63.7363 7.84871C63.4722 7.58217 63.3221 7.22173 63.3184 6.84481ZM63.5562 8.96721H65.9118V16.8872H63.553L63.5562 8.96721Z" fill="#041109"/>
<path d="M76.0795 12.9272C76.1067 13.4506 76.0311 13.9743 75.857 14.4682C75.683 14.962 75.4139 15.4162 75.0652 15.8048C74.7166 16.1933 74.2952 16.5085 73.8254 16.7322C73.3555 16.9558 72.8466 17.0835 72.3277 17.108C71.8913 17.132 71.4551 17.0578 71.0507 16.8906C70.6463 16.7234 70.2839 16.4676 69.9896 16.1416V20.0544H67.6348V8.96721H69.9896V9.71121C70.2839 9.38545 70.6465 9.12977 71.0509 8.96281C71.4553 8.79577 71.8914 8.72161 72.3277 8.74561C72.8467 8.77001 73.3558 8.89769 73.8257 9.12137C74.2956 9.34505 74.717 9.66025 75.0657 10.0489C75.4144 10.4375 75.6835 10.8919 75.8575 11.3859C76.0314 11.8798 76.1069 12.4037 76.0795 12.9272ZM73.7247 12.9272C73.7155 12.5566 73.5982 12.1969 73.3873 11.8931C73.1765 11.5894 72.8817 11.3552 72.5396 11.2198C72.1975 11.0844 71.8234 11.0538 71.4642 11.1318C71.1049 11.2098 70.7765 11.393 70.52 11.6585C70.2634 11.924 70.0902 12.2598 70.0219 12.6242C69.9536 12.9886 69.9934 13.365 70.1361 13.7067C70.2789 14.0484 70.5184 14.3399 70.8246 14.545C71.1308 14.7499 71.49 14.8593 71.8575 14.8592C72.1098 14.8706 72.3616 14.8279 72.5965 14.7342C72.8312 14.6405 73.0438 14.4977 73.22 14.3153C73.3964 14.1328 73.5324 13.9149 73.6194 13.6757C73.7064 13.4365 73.7423 13.1814 73.7247 12.9272Z" fill="#041109"/>
<path d="M83.3459 14.5104C83.3459 16.332 81.7769 17.108 80.0817 17.108C79.3967 17.1706 78.7091 17.0245 78.1074 16.6884C77.5057 16.3524 77.0177 15.842 76.7065 15.2232L78.7466 14.0512C78.8291 14.3372 79.0064 14.5861 79.2488 14.7561C79.4911 14.9262 79.7844 15.0072 80.0786 14.9856C80.6431 14.9856 80.9261 14.8112 80.9261 14.4952C80.9261 13.6232 77.0641 14.0832 77.0641 11.3432C77.0641 9.616 78.5087 8.7456 80.1412 8.7456C80.7549 8.726 81.3622 8.87288 81.9005 9.17088C82.4389 9.46896 82.8885 9.9072 83.2016 10.44L81.1925 11.5328C81.1045 11.3254 80.9578 11.1486 80.7707 11.0247C80.5836 10.9008 80.3648 10.8352 80.1412 10.836C79.7329 10.836 79.4815 10.996 79.4815 11.2792C79.4847 12.1824 83.3459 11.58 83.3459 14.5104Z" fill="#041109"/>
<path d="M91.9477 8.96719V16.8872H89.5929V16.1424C89.3209 16.471 88.976 16.73 88.586 16.898C88.1959 17.066 87.7725 17.1382 87.3491 17.1088C85.7634 17.1088 84.4155 15.9688 84.4155 13.8288V8.96719H86.7703V13.4808C86.7505 13.6694 86.7719 13.8602 86.8329 14.0396C86.8932 14.2191 86.9923 14.3831 87.1223 14.5202C87.2524 14.6572 87.4101 14.764 87.5854 14.8332C87.7598 14.9024 87.9477 14.9323 88.1356 14.9208C88.999 14.9208 89.5953 14.4144 89.5953 13.2896V8.96959L91.9477 8.96719Z" fill="#041109"/>
<path d="M105.45 12.024V16.8864H103.095V12.2296C103.095 11.4376 102.719 10.9312 101.965 10.9312C101.18 10.9312 100.74 11.4856 100.74 12.42V16.8864H98.3863V12.2296C98.3863 11.4376 98.0097 10.9312 97.2557 10.9312C96.4708 10.9312 96.0315 11.4856 96.0315 12.42V16.8864H93.6768V8.96639H96.0315V9.69439C96.2757 9.37143 96.5961 9.11527 96.9631 8.94943C97.331 8.78351 97.7338 8.71319 98.135 8.74479C98.5378 8.72487 98.9389 8.81071 99.2997 8.99383C99.6597 9.17687 99.9665 9.45111 100.191 9.78959C100.452 9.43543 100.797 9.15383 101.195 8.97111C101.593 8.78839 102.031 8.71055 102.467 8.74479C104.269 8.74559 105.45 10.044 105.45 12.024Z" fill="#041109"/>
<path d="M107.442 8.9184C108.407 8.9184 109.189 8.12896 109.189 7.1552C109.189 6.18141 108.407 5.392 107.442 5.392C106.477 5.392 105.694 6.18141 105.694 7.1552C105.694 8.12896 106.477 8.9184 107.442 8.9184Z" fill="#041109"/>
</svg>
