<svg width="112" height="32" viewBox="0 0 112 32" fill="none" xmlns="http://www.w3.org/2000/svg">
<g clip-path="url(#clip0_2828_32997)">
<mask id="path-2-inside-1_2828_32997" fill="white">
<path fill-rule="evenodd" clip-rule="evenodd" d="M8 0C3.58172 0 0 3.58172 0 8V24C0 28.4183 3.58172 32 8 32H24C28.4183 32 32 28.4183 32 24V8C32 3.58172 28.4183 0 24 0H8ZM8 1.5C4.41015 1.5 1.5 4.41015 1.5 8V24C1.5 27.5899 4.41015 30.5 8 30.5H24C27.5899 30.5 30.5 27.5899 30.5 24V8C30.5 4.41015 27.5899 1.5 24 1.5H8Z"/>
</mask>
<path fill-rule="evenodd" clip-rule="evenodd" d="M8 0C3.58172 0 0 3.58172 0 8V24C0 28.4183 3.58172 32 8 32H24C28.4183 32 32 28.4183 32 24V8C32 3.58172 28.4183 0 24 0H8ZM8 1.5C4.41015 1.5 1.5 4.41015 1.5 8V24C1.5 27.5899 4.41015 30.5 8 30.5H24C27.5899 30.5 30.5 27.5899 30.5 24V8C30.5 4.41015 27.5899 1.5 24 1.5H8Z" fill="black"/>
<path d="M1.5 8C1.5 4.41015 4.41015 1.5 8 1.5V-1.5C2.75329 -1.5 -1.5 2.75329 -1.5 8H1.5ZM1.5 24V8H-1.5V24H1.5ZM8 30.5C4.41015 30.5 1.5 27.5899 1.5 24H-1.5C-1.5 29.2467 2.75329 33.5 8 33.5V30.5ZM24 30.5H8V33.5H24V30.5ZM30.5 24C30.5 27.5899 27.5899 30.5 24 30.5V33.5C29.2467 33.5 33.5 29.2467 33.5 24H30.5ZM30.5 8V24H33.5V8H30.5ZM24 1.5C27.5899 1.5 30.5 4.41015 30.5 8H33.5C33.5 2.75329 29.2467 -1.5 24 -1.5V1.5ZM8 1.5H24V-1.5H8V1.5ZM3 8C3 5.23858 5.23858 3 8 3V0C3.58172 0 0 3.58172 0 8H3ZM3 24V8H0V24H3ZM8 29C5.23858 29 3 26.7614 3 24H0C0 28.4183 3.58172 32 8 32V29ZM24 29H8V32H24V29ZM29 24C29 26.7614 26.7614 29 24 29V32C28.4183 32 32 28.4183 32 24H29ZM29 8V24H32V8H29ZM24 3C26.7614 3 29 5.23858 29 8H32C32 3.58172 28.4183 0 24 0V3ZM8 3H24V0H8V3Z" fill="#A0CAAC" mask="url(#path-2-inside-1_2828_32997)"/>
<rect x="3" y="3" width="26" height="26" rx="6" fill="url(#paint0_linear_2828_32997)"/>
<mask id="mask0_2828_32997" style="mask-type:alpha" maskUnits="userSpaceOnUse" x="3" y="3" width="26" height="26">
<rect x="3" y="2.99997" width="26" height="26" rx="6" fill="url(#paint1_linear_2828_32997)"/>
</mask>
<g mask="url(#mask0_2828_32997)">
<g filter="url(#filter0_if_2828_32997)">
<path d="M0 0L9.5 9.5H17L34.5 30.5L26 32.5H17.5L0 32V0Z" fill="url(#paint2_linear_2828_32997)"/>
</g>
<line x1="17.9181" y1="-1.17289" x2="-11.1712" y2="33.4943" stroke="white" stroke-opacity="0.2" stroke-width="0.5"/>
<line x1="43.7167" y1="33.4943" x2="14.6274" y2="-1.17289" stroke="white" stroke-opacity="0.2" stroke-width="0.5"/>
</g>
<path d="M14.3463 6.50718C15.0814 5.58852 16.919 5.58852 17.654 6.50718L25.9233 16.8421C26.6583 17.7608 25.7395 18.9091 24.2694 18.9091H7.73091C6.26082 18.9091 5.34201 17.7608 6.07706 16.8421L14.3463 6.50718Z" fill="white"/>
<g filter="url(#filter1_d_2828_32997)">
<path d="M14.5821 14.7943C15.2122 13.9777 16.7873 13.9777 17.4173 14.7943L24.5053 23.9809C25.1353 24.7974 24.3478 25.8182 23.0877 25.8182H8.91179C7.65171 25.8182 6.86417 24.7974 7.4942 23.9809L14.5821 14.7943Z" fill="white"/>
</g>
</g>
<path d="M52.0992 24.2852L51.069 21.4727H44.739L43.6859 24.2852H40L46.5246 7.48047H49.3291L55.8766 24.2852H52.0992ZM45.8836 18.4258H49.9243L47.9326 13.0586L45.8836 18.4258Z" fill="#062A12"/>
<path d="M65.0226 12.4961H68.3307V24.2852H65.0226V22.8906C64.6944 23.3906 64.248 23.7891 63.6833 24.0859C63.1262 24.375 62.5272 24.5195 61.8862 24.5195C60.4286 24.5195 59.2801 24.043 58.4407 23.0898C57.6089 22.1367 57.193 20.8242 57.193 19.1523V12.4961H60.5011V18.6016C60.5011 19.4062 60.6995 20.0312 61.0963 20.4766C61.5008 20.9219 62.0464 21.1445 62.7332 21.1445C63.1835 21.1445 63.6146 21.0273 64.0267 20.793C64.4464 20.5508 64.7784 20.2266 65.0226 19.8203V12.4961Z" fill="#062A12"/>
<path d="M76.7326 12.2617C77.3202 12.2617 77.7895 12.332 78.1405 12.4727L77.9459 15.6484C77.4576 15.4688 76.9653 15.3789 76.4693 15.3789C76.0572 15.3789 75.5994 15.543 75.0957 15.8711C74.5997 16.1914 74.2219 16.6211 73.9625 17.1602V24.2852H70.6544V12.4961H73.9625V13.8906C74.2296 13.4062 74.6302 13.0156 75.1644 12.7188C75.7062 12.4141 76.2289 12.2617 76.7326 12.2617Z" fill="#062A12"/>
<path d="M84.3676 12.2617C85.1994 12.2617 85.9816 12.418 86.7141 12.7305C87.4544 13.043 88.0878 13.4727 88.6143 14.0195C89.1485 14.5586 89.5682 15.2109 89.8735 15.9766C90.1863 16.7344 90.3428 17.543 90.3428 18.4023C90.3428 19.5508 90.0795 20.5938 89.5529 21.5312C89.034 22.4688 88.3167 23.2031 87.401 23.7344C86.4928 24.2578 85.4817 24.5195 84.3676 24.5195C82.6658 24.5195 81.2426 23.9375 80.0979 22.7734C78.9533 21.6094 78.3809 20.1523 78.3809 18.4023C78.3809 16.6523 78.9533 15.1914 80.0979 14.0195C81.2426 12.8477 82.6658 12.2617 84.3676 12.2617ZM84.3676 15.4961C83.5816 15.4961 82.9253 15.7734 82.3987 16.3281C81.8798 16.875 81.6203 17.5664 81.6203 18.4023C81.6203 19.2148 81.8798 19.8984 82.3987 20.4531C82.9253 21.0078 83.5816 21.2852 84.3676 21.2852C85.1383 21.2852 85.787 21.0078 86.3135 20.4531C86.8401 19.8984 87.1033 19.2148 87.1033 18.4023C87.1033 17.5664 86.8401 16.875 86.3135 16.3281C85.7946 15.7734 85.1459 15.4961 84.3676 15.4961Z" fill="#062A12"/>
<path d="M98.2754 12.2617C98.863 12.2617 99.3323 12.332 99.6833 12.4727L99.4887 15.6484C99.0003 15.4688 98.5081 15.3789 98.0121 15.3789C97.6 15.3789 97.1421 15.543 96.6385 15.8711C96.1424 16.1914 95.7647 16.6211 95.5052 17.1602V24.2852H92.1971V12.4961H95.5052V13.8906C95.7723 13.4062 96.173 13.0156 96.7072 12.7188C97.249 12.4141 97.7717 12.2617 98.2754 12.2617Z" fill="#062A12"/>
<path d="M108.692 12.4961H112V24.2852H108.692V22.8906C108.41 23.375 107.952 23.7695 107.318 24.0742C106.693 24.3711 106.017 24.5195 105.292 24.5195C104.308 24.5195 103.403 24.2461 102.579 23.6992C101.755 23.1523 101.107 22.4102 100.633 21.4727C100.16 20.5273 99.9237 19.4961 99.9237 18.3789C99.9237 16.6758 100.443 15.2305 101.48 14.043C102.526 12.8555 103.797 12.2617 105.292 12.2617C106.01 12.2617 106.685 12.4141 107.318 12.7188C107.952 13.0234 108.41 13.4141 108.692 13.8906V12.4961ZM106.025 21.3086C106.582 21.3086 107.101 21.1719 107.582 20.8984C108.07 20.625 108.44 20.2734 108.692 19.8438V16.9609C108.44 16.5156 108.07 16.1523 107.582 15.8711C107.101 15.5898 106.582 15.4492 106.025 15.4492C105.216 15.4492 104.537 15.7305 103.987 16.293C103.438 16.8477 103.163 17.543 103.163 18.3789C103.163 19.2148 103.438 19.9141 103.987 20.4766C104.537 21.0312 105.216 21.3086 106.025 21.3086Z" fill="#062A12"/>
<defs>
<filter id="filter0_if_2828_32997" x="-4" y="-4" width="42.5" height="40.5" filterUnits="userSpaceOnUse" color-interpolation-filters="sRGB">
<feFlood flood-opacity="0" result="BackgroundImageFix"/>
<feBlend mode="normal" in="SourceGraphic" in2="BackgroundImageFix" result="shape"/>
<feColorMatrix in="SourceAlpha" type="matrix" values="0 0 0 0 0 0 0 0 0 0 0 0 0 0 0 0 0 0 127 0" result="hardAlpha"/>
<feOffset dy="4"/>
<feGaussianBlur stdDeviation="2"/>
<feComposite in2="hardAlpha" operator="arithmetic" k2="-1" k3="1"/>
<feColorMatrix type="matrix" values="0 0 0 0 0.0705882 0 0 0 0 0.537255 0 0 0 0 0.541176 0 0 0 0.3 0"/>
<feBlend mode="normal" in2="shape" result="effect1_innerShadow_2828_32997"/>
<feGaussianBlur stdDeviation="2" result="effect2_foregroundBlur_2828_32997"/>
</filter>
<filter id="filter1_d_2828_32997" x="5.27246" y="10.1818" width="21.4541" height="15.6364" filterUnits="userSpaceOnUse" color-interpolation-filters="sRGB">
<feFlood flood-opacity="0" result="BackgroundImageFix"/>
<feColorMatrix in="SourceAlpha" type="matrix" values="0 0 0 0 0 0 0 0 0 0 0 0 0 0 0 0 0 0 127 0" result="hardAlpha"/>
<feOffset dy="-2"/>
<feGaussianBlur stdDeviation="1"/>
<feComposite in2="hardAlpha" operator="out"/>
<feColorMatrix type="matrix" values="0 0 0 0 0.0746814 0 0 0 0 0.416826 0 0 0 0 0.405325 0 0 0 0.7 0"/>
<feBlend mode="normal" in2="BackgroundImageFix" result="effect1_dropShadow_2828_32997"/>
<feBlend mode="normal" in="SourceGraphic" in2="effect1_dropShadow_2828_32997" result="shape"/>
</filter>
<linearGradient id="paint0_linear_2828_32997" x1="2.59375" y1="-5.125" x2="16" y2="29" gradientUnits="userSpaceOnUse">
<stop stop-color="#ACE348"/>
<stop offset="1" stop-color="#25ACA0"/>
</linearGradient>
<linearGradient id="paint1_linear_2828_32997" x1="2.59375" y1="-5.12503" x2="16" y2="29" gradientUnits="userSpaceOnUse">
<stop stop-color="#ACE348"/>
<stop offset="1" stop-color="#25ACA0"/>
</linearGradient>
<linearGradient id="paint2_linear_2828_32997" x1="18" y1="20.5" x2="-1.12454e-06" y2="32" gradientUnits="userSpaceOnUse">
<stop stop-color="#12898A"/>
<stop offset="1" stop-color="#ACE348" stop-opacity="0"/>
</linearGradient>
<clipPath id="clip0_2828_32997">
<rect width="32" height="32" rx="8" fill="white"/>
</clipPath>
</defs>
</svg>
