<svg width="1440" height="390" viewBox="0 0 1440 390" fill="none" xmlns="http://www.w3.org/2000/svg">
<mask id="path-1-inside-1_2993_21861" fill="white">
<path d="M-560 1280C-560 573.076 13.0756 0 720 0C1426.92 0 2000 573.076 2000 1280C2000 1986.92 1426.92 2560 720 2560C13.0756 2560 -560 1986.92 -560 1280Z"/>
</mask>
<path d="M-560 1280C-560 573.076 13.0756 0 720 0C1426.92 0 2000 573.076 2000 1280C2000 1986.92 1426.92 2560 720 2560C13.0756 2560 -560 1986.92 -560 1280Z" fill="#FCFDFC"/>
<path d="M-560 1279C-560 572.076 13.0755 -1 720 -1C1426.92 -1 2000 572.076 2000 1279V1280C2000 573.628 1426.92 1 720 1C13.0755 1 -560 573.628 -560 1280V1279ZM2000 2560H-560H2000ZM-560 2560V0V2560ZM2000 0V2560V0Z" fill="#E3E8E5" mask="url(#path-1-inside-1_2993_21861)"/>
</svg>
