<svg width="33" height="32" viewBox="0 0 33 32" fill="none" xmlns="http://www.w3.org/2000/svg">
<path d="M19 15.9968C19 12.6745 15.9107 9.33334 12.1429 9.33334C11.6965 9.33334 10.2254 9.33335 9.85714 9.33335C6.07005 9.33335 3 12.3167 3 15.9968C3 19.1681 5.27964 21.8219 8.33333 22.4952C8.82341 22.6033 9.33342 22.6603 9.85714 22.6603" stroke="#041109" stroke-width="1.5" stroke-linecap="round" stroke-linejoin="round"/>
<path d="M13.666 15.9968C13.666 19.3191 16.7553 22.6603 20.5232 22.6603C20.9695 22.6603 22.4406 22.6603 22.8089 22.6603C26.596 22.6603 29.666 19.677 29.666 15.9968C29.666 12.8256 27.3864 10.1718 24.3327 9.49843C23.8426 9.39037 23.3326 9.33331 22.8089 9.33331" stroke="#041109" stroke-width="1.5" stroke-linecap="round" stroke-linejoin="round"/>
</svg>
