<svg width="40" height="40" viewBox="0 0 40 40" fill="none" xmlns="http://www.w3.org/2000/svg">
<path d="M17.4999 16.6667C18.1944 16.6667 18.7849 16.4233 19.2716 15.9367C19.7583 15.45 20.001 14.86 19.9999 14.1667C19.9999 13.4722 19.7566 12.8817 19.2699 12.395C18.7833 11.9083 18.1933 11.6656 17.4999 11.6667C16.8055 11.6667 16.2149 11.91 15.7283 12.3967C15.2416 12.8833 14.9988 13.4733 14.9999 14.1667C14.9999 14.8611 15.2433 15.4517 15.7299 15.9383C16.2166 16.425 16.8066 16.6678 17.4999 16.6667ZM14.1666 25C14.861 25 15.4516 24.7567 15.9383 24.27C16.4249 23.7833 16.6677 23.1933 16.6666 22.5C16.6666 21.8056 16.4233 21.215 15.9366 20.7283C15.4499 20.2417 14.8599 19.9989 14.1666 20C13.4721 20 12.8816 20.2433 12.3949 20.73C11.9083 21.2167 11.6655 21.8067 11.6666 22.5C11.6666 23.1944 11.9099 23.785 12.3966 24.2717C12.8833 24.7583 13.4733 25.0011 14.1666 25ZM24.9999 26.6667C25.4721 26.6667 25.8683 26.5067 26.1883 26.1867C26.5083 25.8667 26.6677 25.4711 26.6666 25C26.6666 24.5278 26.5066 24.1317 26.1866 23.8117C25.8666 23.4917 25.471 23.3322 24.9999 23.3333C24.5277 23.3333 24.1316 23.4933 23.8116 23.8133C23.4916 24.1333 23.3321 24.5289 23.3333 25C23.3333 25.4722 23.4933 25.8683 23.8133 26.1883C24.1333 26.5083 24.5288 26.6678 24.9999 26.6667ZM19.9999 36.6667C17.6944 36.6667 15.5277 36.2289 13.4999 35.3533C11.4721 34.4778 9.70825 33.2906 8.20825 31.7917C6.70825 30.2917 5.52103 28.5278 4.64659 26.5C3.77214 24.4722 3.33436 22.3056 3.33325 20C3.33325 17.6667 3.83325 15.3889 4.83325 13.1667C5.83325 10.9444 7.22936 9.02777 9.02159 7.41666C10.8116 5.80555 12.9355 4.62499 15.3933 3.87499C17.851 3.12499 20.5388 3.05555 23.4566 3.66666C23.2066 4.91666 23.2899 6.09055 23.7066 7.18833C24.1233 8.28611 24.7483 9.20944 25.5816 9.95833C26.4149 10.7083 27.401 11.2222 28.5399 11.5C29.6788 11.7778 30.8733 11.7083 32.1233 11.2917C31.2621 13.2083 31.4149 14.8472 32.5816 16.2083C33.7483 17.5694 35.0821 18.2778 36.5833 18.3333C36.8333 20.8056 36.5694 23.1528 35.7916 25.375C35.0138 27.5972 33.8677 29.5417 32.3533 31.2083C30.8399 32.875 29.0205 34.2017 26.8949 35.1883C24.7694 36.175 22.471 36.6678 19.9999 36.6667Z" fill="#ffffff"/>
</svg>
