<svg width="34" height="34" viewBox="0 0 34 34" fill="none" xmlns="http://www.w3.org/2000/svg">
<path d="M4.49741 9.64585L3.38803 9.90106C3.38803 9.90106 1.84897 12.2761 1.51303 14.8021C1.3021 16.388 1.29428 18.4583 1.44012 19.4896C1.58855 20.5208 2.1198 22.7162 2.95574 24.263C3.76043 25.7526 4.54428 26.3386 5.40105 26.8568C5.76824 27.0781 6.09637 27.8359 6.66928 28.2031C7.20574 28.5469 7.91408 28.6146 7.91408 28.6146C7.91408 28.6146 9.87241 31.6901 14.1094 32.224C19.0807 32.849 21.513 30.6042 21.513 30.6042C21.513 30.6042 23.5026 30.599 25.3802 29.7943C27.487 28.8906 28.612 27.0104 28.612 27.0104C28.612 27.0104 31.25 24.7396 32.0859 22.0208C32.7578 19.8386 32.7761 15.6901 32.2604 13.737C31.7448 11.7839 30.7474 10.1302 29.9557 9.07033C29.3255 8.22658 22.2891 4.48699 21.4401 4.15366C20.5938 3.82293 12.7109 3.30731 12.4167 3.52866C12.1224 3.75262 4.49741 9.64585 4.49741 9.64585Z" fill="#AC5811"/>
<path d="M7.24226 5.47657C5.40632 6.97136 4.4558 7.75261 3.50268 9.6224C2.54955 11.4922 2.85684 13.974 3.02872 14.8906C3.19799 15.8073 3.50528 17.5755 3.67455 18.4583C3.84382 19.3438 4.29434 21.4427 5.54174 22.7422C7.28913 24.5625 8.87247 25.1901 8.87247 25.1901C8.87247 25.1901 10.1563 27.1797 13.2579 28.3177C17.336 29.8125 19.1719 27.638 20.7344 27.0599C22.2969 26.4818 24.1667 26.4479 25.7657 25.3255C27.3621 24.2031 29.1303 22.8438 30.2865 19.9896C31.4428 17.1354 31.2032 15.8776 31.237 15.1641C31.2709 14.4505 31.1693 11.0182 29.8438 8.91147C28.5183 6.80469 26.9245 5.53907 26.31 5.13803C24.9506 4.25522 20.0964 2.14324 18.8751 1.90626C17.6511 1.66928 13.2865 2.03907 11.5548 2.75261C9.82299 3.46615 7.24226 5.47657 7.24226 5.47657Z" fill="url(#paint0_radial_2986_21607)"/>
<path d="M14.9897 18.9427C14.7006 18.8516 14.3959 18.4219 14.323 17.5026C14.2214 16.1927 15.1876 15.8307 15.1876 15.8307C15.1876 15.8307 16.3386 15.5261 17.1485 15.237C17.9011 14.9688 18.4428 14.625 18.4428 14.625C18.4428 14.625 18.5157 13.2214 18.9819 12.8073C19.4506 12.3932 20.2761 12.4297 21.1954 12.5365C22.1121 12.6432 23.5886 13.2552 23.3725 13.8125C23.1563 14.3698 22.9037 14.9271 22.0235 15.4323C21.1433 15.9349 20.5131 16.4037 20.0626 16.7995C19.6121 17.1979 18.7865 17.6979 17.4194 18.2031C16.0522 18.7083 15.4063 19.0729 14.9897 18.9427ZM7.24748 7.22658C6.38289 7.04949 5.16154 8.92189 4.93498 9.54168C4.70581 10.1615 4.47144 11.6719 4.44539 12.362C4.41154 13.2188 4.39592 14.0235 4.75529 14.6771C5.03133 15.1823 5.7006 15.4662 6.30216 14.9453C6.90373 14.4245 7.948 12.9974 8.22404 12.7969C8.50008 12.5964 9.30737 12.3307 8.98966 11.0182C8.85946 10.4818 7.53914 9.37241 7.47404 9.22137C7.41154 9.07293 7.73706 7.32814 7.24748 7.22658ZM13.3595 4.87502C13.3933 5.37762 13.8048 6.18231 14.2501 6.6172C14.9167 7.26564 17.974 9.45835 18.7657 9.33335C19.5574 9.20835 20.4194 7.78647 20.672 7.39064C20.9246 6.99481 21.4272 6.43751 21.6251 6.18491C21.823 5.93231 22.3438 5.35679 21.9141 4.78127C21.4819 4.20574 20.4037 3.82814 19.685 3.77345C18.9662 3.71877 17.849 3.25262 16.8959 3.28908C15.9428 3.32554 13.2709 3.57814 13.3595 4.87502ZM25.9428 11.5807C26.0027 12.1276 26.7709 12.2474 27.3829 12.6432C27.9949 13.0391 28.4089 13.4531 28.7683 13.3438C29.1277 13.237 29.6173 12.6615 29.5053 11.6537C29.3621 10.3594 28.5522 8.70314 27.4193 8.75783C26.7345 8.79168 26.8282 9.98179 26.8282 9.98179C26.8282 9.98179 25.9063 11.2578 25.9428 11.5807Z" fill="#FFC86E"/>
<path d="M11.1329 8.20574C11.1329 8.20574 8.67715 8.19011 8.72142 8.43491C8.7683 8.6797 8.98184 9.48699 9.62246 9.51824C10.2631 9.54949 11.0886 9.60939 11.4844 9.48699C11.8803 9.36459 12.9792 8.47918 12.9792 8.08334C12.9792 7.68751 12.5365 7.10678 12.5365 7.10678L11.1329 8.20574ZM14.6407 12.7083C14.6407 12.7083 14.612 12.7266 14.5704 12.7604C14.448 12.862 14.2136 13.099 14.3048 13.3646C14.4272 13.7162 15.1433 14.3724 15.8464 14.3724C16.5495 14.3724 16.9298 13.7162 17.0522 13.2891C17.1745 12.862 17.112 12.6016 17.112 12.6016L14.6407 12.7083ZM9.16413 14.7083C9.16413 14.7083 8.73705 14.862 8.75267 15.1354C8.7683 15.4089 8.87507 15.9141 9.42455 16.4479C9.97924 16.987 10.7839 17.1354 11.5157 16.9375C12.2475 16.7396 12.7813 16.1901 12.7214 15.4583C12.6615 14.7266 11.9584 14.1615 11.9584 14.1615L9.16413 14.7083ZM6.00528 18.7526C6.00528 18.7526 5.54694 18.8594 5.59382 19.1641C5.64069 19.4688 6.15892 20.4297 6.98184 20.3229C7.80476 20.2162 9.10424 19.2708 9.10424 18.9037C9.10424 18.5365 8.44799 18.0495 8.44799 18.0495L6.00528 18.7526ZM11.6199 22.5677C11.6199 22.5677 11.4506 23.5521 12.7787 23.9115C14.9923 24.5078 15.2214 23.1641 15.2214 23.1641L11.6199 22.5677ZM20.3152 23.0234C20.3152 23.0234 19.7214 23.6172 20.3959 24.0833C21.0704 24.5495 21.8386 24.7083 22.5626 24.6276C23.2865 24.5469 23.7813 23.9688 23.7813 23.9688L20.3152 23.0234ZM25.8568 16.4297C25.8568 16.4297 24.737 16.9948 25.6042 17.9714C26.2631 18.7162 27.7709 18.5651 28.3881 18.1458C28.7917 17.8724 28.9115 17.388 28.7605 17.1432C28.6068 16.8984 25.8568 16.4297 25.8568 16.4297ZM21.5235 9.96095C21.5235 9.96095 21.4636 11.2396 23.1876 11.1979C25.599 11.138 25.2943 9.64064 25.2943 9.64064L21.5235 9.96095Z" fill="#CF701E"/>
<path d="M22.638 8.35939C22.638 8.35939 21.5078 9.06251 21.3854 9.35157C21.263 9.64064 21.0026 10.5573 22.3151 10.4974C23.6276 10.4375 24.9401 10.3906 25.3828 9.85678C25.8255 9.32293 25.7188 8.83335 25.5365 8.43751C25.3542 8.04168 24.3282 6.54428 23.513 6.56251C22.9792 6.57293 22.638 8.35939 22.638 8.35939Z" fill="#593329"/>
<path d="M23.5079 6.55731C23.5079 6.55731 22.7917 6.46617 22.1641 7.58075C21.5391 8.69533 21.3777 9.3594 21.3777 9.3594C21.3777 9.3594 22.6511 9.3646 23.4141 9.27346C24.1772 9.18231 24.6954 8.70835 24.6954 8.70835C24.6954 8.70835 24.073 6.69533 23.5079 6.55731Z" fill="#925849"/>
<path d="M14.8412 11.763C14.8412 11.763 14.2162 11.7214 14.1693 11.9636C14.1224 12.2084 14.2605 12.8308 14.474 13.1042C14.6875 13.3776 15.3282 13.9896 15.9688 13.8672C16.6094 13.7448 16.9896 13.1172 17.0964 12.9011C17.1927 12.6979 17.2969 12.4792 17.1146 12.2058C16.9297 11.9297 14.8412 11.763 14.8412 11.763Z" fill="#593329"/>
<path d="M15.7709 10.7865C15.2396 10.7292 13.9584 11.7474 14.1876 12.0964C14.4428 12.4792 14.487 12.237 15.1902 12.5886C15.7709 12.8776 16.0235 13.1458 16.3881 13.099C16.7527 13.0521 17.1876 12.4505 17.112 12.2057C17.0365 11.961 16.4896 10.862 15.7709 10.7865Z" fill="#925849"/>
<path d="M9.7578 6.66407L8.5078 7.52865C8.5078 7.52865 8.46093 8.11459 8.72134 8.4349C8.98176 8.75522 9.05728 8.95313 10.2786 8.95313C11.5 8.95313 12.6432 8.78647 12.8568 7.91668C13.0703 7.04688 12.6953 6.48959 12.4661 6.16928C12.237 5.84897 9.7578 6.66407 9.7578 6.66407Z" fill="#593329"/>
<path d="M9.77351 5.3073C9.49226 5.42709 8.8282 6.33073 8.67455 6.72657C8.52091 7.1224 8.48705 7.54428 8.50788 7.54948C8.76049 7.61198 10.2475 7.75001 10.9037 7.64323C11.56 7.53646 12.0938 7.2474 12.3074 6.86459C12.4766 6.5599 12.4636 6.15626 12.4636 6.15626C12.4636 6.15626 12.0183 5.35417 11.4063 5.10938C10.7969 4.86459 9.88028 5.26042 9.77351 5.3073Z" fill="#925949"/>
<path d="M8.72661 14.7656C8.72661 14.7656 8.62245 14.9245 8.82036 15.2292C9.01828 15.5339 9.4063 15.8984 9.98703 16.0677C10.5678 16.2344 10.9792 16.4635 11.3594 16.4193C11.7422 16.3724 12.4896 16.0677 12.5183 15.0156C12.5495 13.9635 12.336 13.474 11.8777 13.0156C11.4193 12.5573 11.0886 12.6354 11.0886 12.6354L8.72661 14.7656Z" fill="#593329"/>
<path d="M8.85937 13.7917C8.69792 14.0625 8.57812 14.9427 8.77604 15.1406C8.97396 15.3386 10.1641 15.3516 10.4766 15.3177C10.7917 15.2839 11.8203 14.7995 11.8359 14.4323C11.8516 14.0651 11.6536 13.5781 11.6536 13.3959C11.6536 13.2136 11.8828 12.7865 11.2578 12.6328C10.6328 12.4792 9.19271 13.2266 8.85937 13.7917Z" fill="#925849"/>
<path d="M6.79696 17.7448C6.79696 17.7448 5.81519 17.987 5.75269 18.3229C5.6928 18.6589 5.83342 18.9974 6.16936 19.3177C6.5053 19.638 6.75009 19.974 7.0079 19.9427C7.26832 19.9115 7.95321 19.3021 8.16676 19.1042C8.3803 18.9063 8.68498 18.5547 8.65634 18.2656C8.62769 17.9766 8.50269 17.6849 8.22926 17.4557C7.95842 17.2266 6.79696 17.7448 6.79696 17.7448Z" fill="#593329"/>
<path d="M7.04166 16.875C6.58333 16.8854 6.23177 17.4401 6.08072 17.638C5.92708 17.8359 5.66927 18.3099 5.77604 18.3854C5.88281 18.4609 6.32552 18.5078 6.53906 18.6458C6.7526 18.7838 7.07291 18.9974 7.3177 18.7995C7.56249 18.6016 7.77604 18.0521 7.89843 17.8698C8.02083 17.6875 8.23437 17.4583 8.23437 17.4583C8.23437 17.4583 7.77343 16.8594 7.04166 16.875Z" fill="#925849"/>
<path d="M12.6433 20.5521C12.5521 20.6589 11.2552 21.7109 11.2552 21.7109C11.2552 21.7109 11.3021 22.6276 11.5912 22.8411C11.8802 23.0547 12.7813 23.3594 13.362 23.4818C13.9427 23.6042 14.9792 23.7422 15.2396 23.6354C15.5 23.5286 15.7735 22.9635 15.7891 22.2318C15.8047 21.5 15.5443 20.9531 15.2552 20.6172C14.9662 20.2812 14.7344 20.1562 14.7344 20.1562L12.6433 20.5521Z" fill="#593329"/>
<path d="M14.3673 21.9245C14.5365 21.7344 14.7344 20.1536 14.7344 20.1536C14.7344 20.1536 13.56 19.2526 13.0704 19.1927C12.5808 19.1328 12.0027 19.1771 11.8334 19.3594C11.6667 19.5417 11.0105 20.1979 11.0704 20.625C11.1303 21.0521 11.2527 21.7083 11.2527 21.7083C11.2527 21.7083 14.0157 22.3229 14.3673 21.9245Z" fill="#925849"/>
<path d="M20.0599 22.6771C20.0599 22.6771 19.9115 23.6667 21 23.8542C22.0886 24.0391 22.9922 24.2865 23.4636 24.1875C23.9349 24.0885 24.4037 23.4583 24.4531 23C24.5026 22.5417 24.5287 21.8802 24.4531 21.7005C24.2552 21.224 23.3386 19.9193 22.8932 19.7813C22.6432 19.7057 22.4063 19.7474 22.4063 19.7474L20.0599 22.6771Z" fill="#593329"/>
<path d="M20.7656 20.9427C20.2787 21.4818 20.0287 22.2604 20.0547 22.6719C20.0807 23.0599 21.9271 22.8906 22.1458 22.7578C22.3646 22.625 22.8412 22.0312 22.8568 21.8333C22.8724 21.6354 22.7214 21.0156 22.6953 20.6328C22.6693 20.25 22.6589 19.7292 22.4479 19.7422C22.237 19.7552 21.4583 20.1771 20.7656 20.9427Z" fill="#925849"/>
<path d="M27.0104 14.224C27.0104 14.224 27.4401 14.2865 27.9688 14.6042C28.586 14.974 29.2318 15.9167 29.1823 16.6849C29.1328 17.4531 28.4636 17.7995 27.6485 17.8125C26.8333 17.8255 26.0365 17.7813 25.888 17.3594C25.7396 16.9375 27.0104 14.224 27.0104 14.224Z" fill="#593329"/>
<path d="M26.3594 14.4818C26.2318 14.6589 25.9011 15.2005 25.7891 15.8932C25.6771 16.5859 25.7526 17.3776 26 17.5156C26.2474 17.6511 27.6094 16.4766 27.6823 16.3516C27.7579 16.2266 27.2474 14.3333 27.086 14.2474C26.9245 14.1615 26.5209 14.2604 26.3594 14.4818Z" fill="#925849"/>
<defs>
<radialGradient id="paint0_radial_2986_21607" cx="0" cy="0" r="1" gradientUnits="userSpaceOnUse" gradientTransform="translate(17.0428 15.3323) scale(13.8547)">
<stop offset="0.507" stop-color="#F29F58"/>
<stop offset="0.715" stop-color="#F09D56"/>
<stop offset="0.826" stop-color="#EB9550"/>
<stop offset="0.914" stop-color="#E18745"/>
<stop offset="0.99" stop-color="#D47436"/>
<stop offset="1" stop-color="#D27133"/>
</radialGradient>
</defs>
</svg>
