<svg width="166" height="40" viewBox="0 0 166 40" fill="none" xmlns="http://www.w3.org/2000/svg">
<g clip-path="url(#clip0_2923_14150)">
<path d="M50.6396 27.4517H62.3104V23.9395H54.7877V10.7102H50.6396V27.4517Z" fill="white"/>
<path d="M69.225 25.1101C67.5611 25.1101 66.694 23.6584 66.694 21.4809C66.694 19.3033 67.5611 17.8282 69.225 17.8282C70.8889 17.8282 71.7794 19.3033 71.7794 21.4809C71.7794 23.6584 70.8889 25.1101 69.225 25.1101ZM69.2484 27.8262C73.1152 27.8262 75.6463 25.0867 75.6463 21.4809C75.6463 17.875 73.1152 15.1355 69.2484 15.1355C65.405 15.1355 62.8271 17.875 62.8271 21.4809C62.8271 25.0867 65.405 27.8262 69.2484 27.8262Z" fill="white"/>
<path d="M82.3398 31.5962C84.1208 31.5962 85.691 31.1982 86.7456 30.2616C87.7064 29.3952 88.3392 28.084 88.3392 26.2811V15.4635H84.6833V16.7513H84.6364C83.9334 15.7445 82.8553 15.1123 81.2617 15.1123C78.2855 15.1123 76.2231 17.5943 76.2231 21.1065C76.2231 24.7825 78.7307 26.7962 81.4258 26.7962C82.8788 26.7962 83.7927 26.2108 84.4958 25.4147H84.5895V26.6089C84.5895 28.0606 83.9099 28.9035 82.2929 28.9035C81.0274 28.9035 80.3946 28.365 80.1837 27.7328H76.4809C76.8559 30.2382 79.0354 31.5962 82.3398 31.5962ZM82.3163 23.963C80.8868 23.963 79.9494 22.7923 79.9494 20.9894C79.9494 19.163 80.8868 17.9923 82.3163 17.9923C83.9099 17.9923 84.7536 19.3504 84.7536 20.966C84.7536 22.6518 83.9802 23.963 82.3163 23.963Z" fill="white"/>
<path d="M95.8563 25.1101C94.1924 25.1101 93.3253 23.6584 93.3253 21.4809C93.3253 19.3033 94.1924 17.8282 95.8563 17.8282C97.5202 17.8282 98.4108 19.3033 98.4108 21.4809C98.4108 23.6584 97.5202 25.1101 95.8563 25.1101ZM95.8798 27.8262C99.7466 27.8262 102.278 25.0867 102.278 21.4809C102.278 17.875 99.7466 15.1355 95.8798 15.1355C92.0364 15.1355 89.4585 17.875 89.4585 21.4809C89.4585 25.0867 92.0364 27.8262 95.8798 27.8262Z" fill="white"/>
<path d="M103.393 27.4517H107.213V15.4634H103.393V27.4517ZM103.393 13.8009H107.213V10.7102H103.393V13.8009Z" fill="white"/>
<path d="M108.871 31.4089H112.691V26.2108H112.737C113.487 27.2177 114.589 27.8265 116.136 27.8265C119.276 27.8265 121.362 25.3445 121.362 21.4577C121.362 17.8518 119.416 15.1123 116.229 15.1123C114.589 15.1123 113.417 15.8382 112.597 16.9152H112.527V15.4635H108.871V31.4089ZM115.151 24.8762C113.511 24.8762 112.573 23.5416 112.573 21.5982C112.573 19.6547 113.417 18.1796 115.081 18.1796C116.721 18.1796 117.495 19.5377 117.495 21.5982C117.495 23.6352 116.604 24.8762 115.151 24.8762Z" fill="white"/>
<path d="M127.581 27.8265C130.721 27.8265 133.041 26.4684 133.041 23.846C133.041 20.7786 130.557 20.2401 128.448 19.8889C126.925 19.6079 125.566 19.4908 125.566 18.6479C125.566 17.8986 126.292 17.5474 127.229 17.5474C128.284 17.5474 129.011 17.8752 129.151 18.9523H132.666C132.479 16.5874 130.651 15.1123 127.253 15.1123C124.417 15.1123 122.074 16.4235 122.074 18.9523C122.074 21.7621 124.3 22.324 126.386 22.6752C127.979 22.9562 129.432 23.0733 129.432 24.1504C129.432 24.923 128.706 25.3445 127.558 25.3445C126.292 25.3445 125.495 24.7591 125.355 23.565H121.746C121.863 26.2108 124.066 27.8265 127.581 27.8265Z" fill="white"/>
<path d="M138.23 27.8029C139.894 27.8029 140.949 27.1473 141.816 25.9765H141.886V27.4517H145.542V15.4634H141.722V22.16C141.722 23.5883 140.925 24.5717 139.613 24.5717C138.394 24.5717 137.808 23.8458 137.808 22.5346V15.4634H134.012V23.3307C134.012 26 135.465 27.8029 138.23 27.8029Z" fill="white"/>
<path d="M147.203 27.4518H151.023V20.7318C151.023 19.3035 151.726 18.2967 152.921 18.2967C154.07 18.2967 154.609 19.046 154.609 20.3338V27.4518H158.429V20.7318C158.429 19.3035 159.108 18.2967 160.327 18.2967C161.475 18.2967 162.014 19.046 162.014 20.3338V27.4518H165.834V19.6547C165.834 16.9621 164.475 15.1123 161.756 15.1123C160.21 15.1123 158.921 15.7679 157.983 17.2196H157.936C157.327 15.9318 156.132 15.1123 154.562 15.1123C152.828 15.1123 151.679 15.9318 150.929 17.1728H150.859V15.4635H147.203V27.4518Z" fill="white"/>
<path fill-rule="evenodd" clip-rule="evenodd" d="M20.1974 39.1591C30.9832 39.1591 39.7268 30.4232 39.7268 19.6469C39.7268 8.87068 30.9832 0.134766 20.1974 0.134766C9.41157 0.134766 0.667969 8.87068 0.667969 19.6469C0.667969 30.4232 9.41157 39.1591 20.1974 39.1591ZM26.2899 9.22437C26.5864 8.17189 25.5642 7.54953 24.6306 8.21408L11.5977 17.4904C10.5852 18.2111 10.7445 19.6469 11.837 19.6469H15.2689V19.6204H21.9575L16.5075 21.5417L14.1049 30.0696C13.8084 31.1221 14.8305 31.7444 15.7642 31.0798L28.7971 21.8035C29.8096 21.0828 29.6502 19.6469 28.5578 19.6469H23.3534L26.2899 9.22437Z" fill="white"/>
</g>
<defs>
<clipPath id="clip0_2923_14150">
<rect width="166" height="40" fill="white"/>
</clipPath>
</defs>
</svg>
