<svg width="155" height="40" viewBox="0 0 155 40" fill="none" xmlns="http://www.w3.org/2000/svg">
<path d="M46.0874 12.5876H49.8374V27.7501H46.0874V12.5876ZM51.3249 22.0251C51.3249 18.2751 53.6249 16.0376 57.1749 16.0376C60.7249 16.0376 63.0249 18.2751 63.0249 22.0251C63.0249 25.7751 60.7749 28.0251 57.1749 28.0251C53.5749 28.0251 51.3249 25.8376 51.3249 22.0251ZM59.2624 22.0251C59.2624 19.9626 58.4499 18.7501 57.1749 18.7501C55.8999 18.7501 55.0999 20.0001 55.0999 22.0251C55.0999 24.0501 55.8874 25.2751 57.1749 25.2751C58.4624 25.2751 59.2624 24.1251 59.2624 22.0376V22.0251ZM64.4374 28.4876H68.0374C68.2088 28.8682 68.4984 29.1834 68.8633 29.3861C69.2282 29.5887 69.6488 29.6682 70.0624 29.6126C71.4874 29.6126 72.2374 28.8376 72.2374 27.7126V25.6126H72.1624C71.8637 26.2562 71.3788 26.7955 70.7705 27.161C70.1623 27.5264 69.4584 27.7011 68.7499 27.6626C66.0124 27.6626 64.1999 25.5751 64.1999 21.9876C64.1999 18.4001 65.9249 16.1376 68.7999 16.1376C69.5307 16.109 70.2527 16.3044 70.8693 16.6975C71.4859 17.0907 71.9677 17.663 72.2499 18.3376V16.2501H75.9999V27.6251C75.9999 30.3626 73.5874 32.0626 70.0249 32.0626C66.7124 32.0626 64.6499 30.5751 64.4374 28.5001V28.4876ZM72.2499 22.0126C72.2499 20.1876 71.4124 19.0376 70.0874 19.0376C68.7624 19.0376 67.9499 20.1751 67.9499 22.0126C67.9499 23.8501 68.7499 24.8876 70.0874 24.8876C71.4249 24.8876 72.2499 23.8751 72.2499 22.0251V22.0126ZM77.4124 22.0126C77.4124 18.2626 79.7124 16.0251 83.2624 16.0251C86.8124 16.0251 89.1249 18.2626 89.1249 22.0126C89.1249 25.7626 86.8749 28.0126 83.2624 28.0126C79.6499 28.0126 77.4124 25.8376 77.4124 22.0251V22.0126ZM85.3499 22.0126C85.3499 19.9501 84.5374 18.7376 83.2624 18.7376C81.9874 18.7376 81.2499 20.0001 81.2499 22.0376C81.2499 24.0751 82.0374 25.2876 83.3124 25.2876C84.5874 25.2876 85.3499 24.1251 85.3499 22.0376V22.0126ZM90.5499 13.5251C90.54 13.1465 90.6429 12.7735 90.8453 12.4534C91.0478 12.1332 91.3407 11.8804 91.6869 11.727C92.0332 11.5735 92.4172 11.5264 92.7903 11.5914C93.1634 11.6565 93.5088 11.8309 93.7827 12.0925C94.0567 12.3541 94.2466 12.6911 94.3288 13.0609C94.4109 13.4306 94.3814 13.8164 94.2439 14.1694C94.1065 14.5222 93.8674 14.8265 93.5569 15.0434C93.2465 15.2602 92.8785 15.3801 92.4999 15.3876C92.2489 15.4049 91.997 15.37 91.7602 15.2852C91.5232 15.2005 91.3064 15.0677 91.1233 14.8951C90.9401 14.7226 90.7947 14.514 90.696 14.2825C90.5973 14.0511 90.5475 13.8017 90.5499 13.5501V13.5251ZM90.5499 16.2751H94.2999V27.7501H90.5499V16.2751ZM107.912 22.0126C107.912 25.7626 106.25 27.9001 103.4 27.9001C102.669 27.947 101.942 27.7684 101.316 27.3884C100.69 27.0082 100.195 26.4451 99.8999 25.7751H99.8249V31.4251H96.0749V16.2501H99.8249V18.3001H99.8999C100.182 17.619 100.666 17.0412 101.288 16.6454C101.91 16.2495 102.639 16.0547 103.375 16.0876C106.25 16.1376 107.962 18.2876 107.962 22.0376L107.912 22.0126ZM104.162 22.0126C104.162 20.1876 103.325 19.0251 102.012 19.0251C100.7 19.0251 99.8624 20.2001 99.8499 22.0126C99.8374 23.8251 100.7 24.9876 102.012 24.9876C103.325 24.9876 104.162 23.8501 104.162 22.0376V22.0126ZM114.35 16.0126C117.462 16.0126 119.35 17.4876 119.437 19.8501H116.025C116.025 19.0376 115.35 18.5251 114.312 18.5251C113.275 18.5251 112.812 18.9251 112.812 19.5126C112.812 20.1001 113.225 20.2876 114.062 20.4626L116.462 20.9501C118.75 21.4376 119.725 22.3626 119.725 24.1001C119.725 26.4751 117.562 28.0001 114.375 28.0001C111.187 28.0001 109.1 26.4751 108.937 24.1376H112.55C112.662 24.9876 113.337 25.4876 114.437 25.4876C115.537 25.4876 116.037 25.1251 116.037 24.5251C116.037 23.9251 115.687 23.8001 114.787 23.6126L112.625 23.1501C110.387 22.6876 109.212 21.5001 109.212 19.7501C109.237 17.5001 111.25 16.0376 114.35 16.0376V16.0126ZM132.237 27.7251H128.625V25.5876H128.55C128.351 26.3052 127.914 26.9334 127.309 27.3677C126.704 27.802 125.969 28.0164 125.225 27.9751C124.655 28.0075 124.085 27.9172 123.553 27.7104C123.021 27.5035 122.54 27.185 122.142 26.7761C121.744 26.3674 121.438 25.8777 121.245 25.3406C121.053 24.8035 120.978 24.2312 121.025 23.6626V16.2501H124.775V22.8001C124.775 24.1626 125.475 24.8876 126.637 24.8876C126.91 24.8881 127.18 24.8305 127.429 24.7184C127.676 24.6062 127.899 24.4422 128.079 24.2375C128.257 24.0326 128.392 23.7917 128.471 23.531C128.55 23.2701 128.574 22.9954 128.537 22.7251V16.2501H132.287L132.237 27.7251ZM134.05 16.2501H137.675V18.4626H137.75C137.949 17.7545 138.377 17.1322 138.967 16.6935C139.557 16.2547 140.277 16.024 141.012 16.0376C141.761 15.9777 142.504 16.2016 143.095 16.6649C143.685 17.1281 144.08 17.7966 144.2 18.5376H144.275C144.501 17.7887 144.971 17.1367 145.61 16.6841C146.247 16.2315 147.019 16.004 147.8 16.0376C148.31 16.0205 148.817 16.1109 149.29 16.3029C149.764 16.4947 150.19 16.7841 150.544 17.1519C150.897 17.5197 151.17 17.9579 151.344 18.4377C151.516 18.9176 151.587 19.4287 151.55 19.9376V27.7501H147.8V20.9376C147.8 19.6876 147.237 19.1126 146.187 19.1126C145.954 19.1106 145.721 19.1589 145.507 19.2541C145.294 19.3494 145.102 19.4894 144.947 19.6647C144.792 19.8401 144.676 20.0466 144.607 20.2705C144.539 20.4945 144.52 20.7305 144.55 20.9626V27.7501H140.987V20.8876C140.987 19.7376 140.425 19.1126 139.4 19.1126C139.164 19.1127 138.929 19.163 138.714 19.2601C138.497 19.3574 138.304 19.4992 138.147 19.6764C137.99 19.8535 137.872 20.062 137.801 20.2881C137.731 20.5141 137.709 20.7525 137.737 20.9876V27.7501H133.987L134.05 16.2501Z" fill="#041109"/>
<path d="M35.6 13.2751C34.9639 11.8206 34.122 10.465 33.1 9.25011C31.5894 7.40053 29.7041 5.89185 27.5684 4.82336C25.4326 3.75488 23.0947 3.15082 20.7087 3.05093C18.3227 2.95105 15.9426 3.3576 13.725 4.24385C11.5075 5.13008 9.50271 6.47592 7.84275 8.19277C6.18277 9.90961 4.90521 11.9585 4.09415 14.2047C3.28308 16.4509 2.9569 18.8434 3.13707 21.2246C3.31726 23.606 3.9997 25.9221 5.1395 28.0206C6.2793 30.1192 7.85061 31.9526 9.75001 33.4001C10.9688 34.3475 12.3154 35.1176 13.75 35.6876C15.7612 36.5119 17.9139 36.9364 20.0875 36.9376C24.5742 36.9277 28.874 35.1392 32.0444 31.9642C35.2146 28.7892 36.9967 24.4869 37 20.0001C37.0032 17.6857 36.5266 15.3959 35.6 13.2751ZM20.075 6.4876C22.027 6.4874 23.9554 6.91402 25.725 7.7376C25.2935 7.92406 24.8397 8.0543 24.375 8.12511C22.8457 8.34647 21.4291 9.05645 20.3365 10.1491C19.2439 11.2417 18.5339 12.6584 18.3125 14.1876C18.2154 15.0452 17.8252 15.8431 17.2081 16.4466C16.591 17.0501 15.7846 17.4221 14.925 17.5001C13.3957 17.7215 11.9791 18.4315 10.8865 19.5241C9.79386 20.6167 9.08387 22.0334 8.86251 23.5626C8.78756 24.3781 8.43962 25.1445 7.87501 25.7376C6.90082 23.6792 6.4632 21.4077 6.60285 19.1347C6.7425 16.8617 7.45488 14.661 8.67372 12.7372C9.89255 10.8136 11.5782 9.2295 13.5739 8.13241C15.5695 7.03532 17.8102 6.46091 20.0875 6.4626L20.075 6.4876ZM9.73751 28.7501C9.88751 28.6126 10.0375 28.4876 10.1875 28.3376C11.2996 27.2595 12.0134 25.8362 12.2125 24.3001C12.2932 23.4366 12.6787 22.6301 13.3 22.0251C13.8979 21.4029 14.7025 21.0205 15.5625 20.9501C17.0917 20.7287 18.5084 20.0187 19.601 18.9261C20.6936 17.8335 21.4036 16.4169 21.625 14.8876C21.6791 13.9845 22.0666 13.1336 22.7125 12.5001C23.3251 11.8899 24.1374 11.5215 25 11.4626C26.4049 11.2693 27.7151 10.6447 28.75 9.67511C29.9284 10.6527 30.9266 11.8287 31.7 13.1501C31.6525 13.2142 31.598 13.273 31.5375 13.3251C30.9409 13.9529 30.1372 14.3436 29.275 14.4251C27.7441 14.6426 26.3254 15.3514 25.232 16.4446C24.1387 17.538 23.43 18.9567 23.2125 20.4876C23.1244 21.3481 22.7415 22.1517 22.1287 22.7622C21.5159 23.3729 20.7109 23.7527 19.85 23.8376C18.3162 24.0572 16.8944 24.7659 15.7954 25.858C14.6965 26.9502 13.9791 28.3677 13.75 29.9001C13.6827 30.511 13.4729 31.0976 13.1375 31.6126C11.855 30.8511 10.7064 29.8841 9.73751 28.7501ZM20.075 33.5751C18.8066 33.5765 17.5442 33.3997 16.325 33.0501C16.7421 32.2726 17.0132 31.4252 17.125 30.5501C17.2126 29.6915 17.5937 28.8894 18.204 28.2791C18.8142 27.6689 19.6164 27.2877 20.475 27.2001C22.0065 26.9812 23.426 26.2724 24.5211 25.1795C25.6161 24.0867 26.328 22.6686 26.55 21.1376C26.6376 20.279 27.0187 19.4769 27.629 18.8666C28.2392 18.2564 29.0414 17.8752 29.9 17.7876C31.0525 17.6377 32.151 17.2086 33.1 16.5376C33.627 18.535 33.6894 20.6265 33.2825 22.6517C32.8756 24.677 32.0101 26.5822 30.7526 28.2211C29.4951 29.8599 27.879 31.189 26.028 32.1062C24.1771 33.0235 22.1407 33.5046 20.075 33.5126V33.5751Z" fill="#041109"/>
</svg>
