<svg width="200" height="40" viewBox="0 0 200 40" fill="none" xmlns="http://www.w3.org/2000/svg">
<g clip-path="url(#clip0_2923_14156)">
<path d="M60.0908 30.2977V9.93774H63.9301V26.8074H73.2374V30.2977H60.0908Z" fill="white"/>
<path d="M81.5271 30.705C80.0922 30.705 78.8027 30.4141 77.6587 29.8324C76.5146 29.2507 75.613 28.4072 74.9537 27.302C74.2945 26.1967 73.9648 24.8685 73.9648 23.3172V22.8519C73.9648 21.3006 74.2945 19.9724 74.9537 18.8671C75.613 17.7619 76.5146 16.9184 77.6587 16.3366C78.8027 15.755 80.0922 15.4641 81.5271 15.4641C82.962 15.4641 84.2515 15.755 85.3955 16.3366C86.5395 16.9184 87.4411 17.7619 88.1005 18.8671C88.7597 19.9724 89.0893 21.3006 89.0893 22.8519V23.3172C89.0893 24.8685 88.7597 26.1967 88.1005 27.302C87.4411 28.4072 86.5395 29.2507 85.3955 29.8324C84.2515 30.4141 82.962 30.705 81.5271 30.705ZM81.5271 27.4474C82.6517 27.4474 83.5825 27.0886 84.3193 26.3712C85.0561 25.6344 85.4246 24.5872 85.4246 23.23V22.9391C85.4246 21.5817 85.0561 20.5444 84.3193 19.8269C83.6018 19.0901 82.6711 18.7216 81.5271 18.7216C80.4025 18.7216 79.4717 19.0901 78.7348 19.8269C77.998 20.5444 77.6296 21.5817 77.6296 22.9391V23.23C77.6296 24.5872 77.998 25.6344 78.7348 26.3712C79.4717 27.0886 80.4025 27.4474 81.5271 27.4474Z" fill="white"/>
<path d="M90.4648 23.1427V22.6774C90.4648 21.1649 90.7653 19.8754 91.3665 18.8089C91.9676 17.7231 92.7626 16.899 93.7515 16.3366C94.7598 15.755 95.8553 15.4641 97.0382 15.4641C98.3567 15.4641 99.3553 15.6967 100.034 16.1621C100.713 16.6275 101.207 17.1122 101.517 17.6164H102.041V15.8712H105.648V32.8572C105.648 33.8462 105.357 34.6315 104.775 35.2132C104.193 35.8144 103.418 36.1149 102.448 36.1149H92.7917V32.9155H101.168C101.711 32.9155 101.983 32.6246 101.983 32.0429V28.2909H101.459C101.265 28.6011 100.994 28.921 100.645 29.2507C100.296 29.5609 99.8305 29.8227 99.2487 30.036C98.667 30.2492 97.9302 30.356 97.0382 30.356C95.8553 30.356 94.7598 30.0747 93.7515 29.5125C92.7626 28.9307 91.9676 28.1066 91.3665 27.0401C90.7653 25.9544 90.4648 24.6551 90.4648 23.1427ZM98.0853 27.1565C99.21 27.1565 100.15 26.7977 100.907 26.0804C101.663 25.3629 102.041 24.3546 102.041 23.0555V22.7646C102.041 21.446 101.663 20.4377 100.907 19.7396C100.17 19.0222 99.2293 18.6635 98.0853 18.6635C96.9606 18.6635 96.0202 19.0222 95.264 19.7396C94.5077 20.4377 94.1296 21.446 94.1296 22.7646V23.0555C94.1296 24.3546 94.5077 25.3629 95.264 26.0804C96.0202 26.7977 96.9606 27.1565 98.0853 27.1565Z" fill="white"/>
<path d="M115.266 30.705C113.832 30.705 112.542 30.4141 111.398 29.8324C110.254 29.2507 109.352 28.4072 108.693 27.302C108.034 26.1967 107.704 24.8685 107.704 23.3172V22.8519C107.704 21.3006 108.034 19.9724 108.693 18.8671C109.352 17.7619 110.254 16.9184 111.398 16.3366C112.542 15.755 113.832 15.4641 115.266 15.4641C116.701 15.4641 117.991 15.755 119.135 16.3366C120.279 16.9184 121.18 17.7619 121.84 18.8671C122.499 19.9724 122.829 21.3006 122.829 22.8519V23.3172C122.829 24.8685 122.499 26.1967 121.84 27.302C121.18 28.4072 120.279 29.2507 119.135 29.8324C117.991 30.4141 116.701 30.705 115.266 30.705ZM115.266 27.4474C116.391 27.4474 117.322 27.0886 118.059 26.3712C118.795 25.6344 119.164 24.5872 119.164 23.23V22.9391C119.164 21.5817 118.795 20.5444 118.059 19.8269C117.341 19.0901 116.41 18.7216 115.266 18.7216C114.142 18.7216 113.211 19.0901 112.474 19.8269C111.737 20.5444 111.369 21.5817 111.369 22.9391V23.23C111.369 24.5872 111.737 25.6344 112.474 26.3712C113.211 27.0886 114.142 27.4474 115.266 27.4474Z" fill="white"/>
<path d="M124.902 30.2977V15.8712H128.568V30.2977H124.902ZM126.735 14.1843C126.075 14.1843 125.514 13.9709 125.048 13.5443C124.602 13.1178 124.379 12.5554 124.379 11.8574C124.379 11.1593 124.602 10.597 125.048 10.1704C125.514 9.74382 126.075 9.53052 126.735 9.53052C127.414 9.53052 127.976 9.74382 128.421 10.1704C128.868 10.597 129.091 11.1593 129.091 11.8574C129.091 12.5554 128.868 13.1178 128.421 13.5443C127.976 13.9709 127.414 14.1843 126.735 14.1843Z" fill="white"/>
<path d="M131.32 36.1149V15.8712H134.926V17.6164H135.45C135.779 17.0541 136.292 16.5596 136.991 16.133C137.689 15.6871 138.687 15.4641 139.987 15.4641C141.15 15.4641 142.226 15.755 143.215 16.3366C144.205 16.899 145 17.7327 145.6 18.838C146.201 19.9432 146.502 21.2812 146.502 22.8519V23.3172C146.502 24.8879 146.201 26.2257 145.6 27.331C145 28.4362 144.205 29.2797 143.215 29.8615C142.226 30.4237 141.15 30.705 139.987 30.705C139.115 30.705 138.377 30.5984 137.776 30.385C137.195 30.1911 136.72 29.939 136.351 29.6287C136.002 29.2991 135.721 28.9695 135.507 28.6399H134.984V36.1149H131.32ZM138.881 27.5055C140.026 27.5055 140.966 27.1469 141.702 26.4294C142.459 25.6925 142.837 24.6261 142.837 23.23V22.9391C142.837 21.543 142.459 20.4862 141.702 19.7687C140.946 19.0319 140.006 18.6635 138.881 18.6635C137.757 18.6635 136.816 19.0319 136.06 19.7687C135.304 20.4862 134.926 21.543 134.926 22.9391V23.23C134.926 24.6261 135.304 25.6925 136.06 26.4294C136.816 27.1469 137.757 27.5055 138.881 27.5055Z" fill="white"/>
<path d="M154.55 30.705C152.669 30.705 151.127 30.2977 149.925 29.4834C148.724 28.669 147.996 27.5055 147.744 25.9931L151.117 25.1205C151.254 25.7992 151.476 26.3324 151.787 26.7202C152.116 27.108 152.514 27.3892 152.98 27.5637C153.464 27.7189 153.987 27.7964 154.55 27.7964C155.404 27.7964 156.034 27.651 156.44 27.3601C156.847 27.0499 157.051 26.6717 157.051 26.2257C157.051 25.7797 156.857 25.4405 156.47 25.2077C156.081 24.9557 155.461 24.7521 154.609 24.597L153.794 24.4515C152.785 24.2576 151.865 23.9959 151.031 23.6662C150.196 23.3172 149.527 22.8421 149.024 22.241C148.52 21.64 148.267 20.8644 148.267 19.9142C148.267 18.4792 148.791 17.3837 149.839 16.6275C150.885 15.8519 152.262 15.4641 153.969 15.4641C155.577 15.4641 156.916 15.8227 157.982 16.5402C159.049 17.2577 159.746 18.1981 160.076 19.3616L156.674 20.4086C156.519 19.6719 156.199 19.1482 155.714 18.838C155.247 18.5277 154.666 18.3726 153.969 18.3726C153.27 18.3726 152.737 18.4987 152.369 18.7507C152 18.9835 151.816 19.3131 151.816 19.7396C151.816 20.205 152.01 20.5541 152.397 20.7867C152.785 21 153.309 21.1649 153.969 21.2812L154.782 21.4266C155.869 21.6205 156.847 21.8824 157.72 22.212C158.612 22.5222 159.31 22.9779 159.815 23.579C160.337 24.1607 160.6 24.9557 160.6 25.964C160.6 27.4765 160.047 28.6496 158.942 29.4834C157.856 30.2977 156.392 30.705 154.55 30.705Z" fill="white"/>
<path d="M168 30.5303C166.875 30.5303 165.886 30.2782 165.032 29.7741C164.199 29.2506 163.55 28.5331 163.084 27.6217C162.619 26.7103 162.386 25.6633 162.386 24.4805V15.8711H166.051V24.1896C166.051 25.2755 166.312 26.0898 166.836 26.6328C167.379 27.1757 168.145 27.4472 169.134 27.4472C170.259 27.4472 171.131 27.0788 171.751 26.342C172.372 25.5857 172.682 24.5386 172.682 23.2007V15.8711H176.347V30.2976H172.74V28.4071H172.217C171.985 28.8918 171.547 29.3668 170.909 29.8322C170.269 30.2976 169.299 30.5303 168 30.5303Z" fill="white"/>
<path d="M179.116 30.2976V15.8711H182.722V17.4417H183.246C183.499 16.9569 183.916 16.5401 184.497 16.1911C185.079 15.8226 185.845 15.6384 186.795 15.6384C187.822 15.6384 188.647 15.8421 189.267 16.2492C189.887 16.6371 190.362 17.1508 190.692 17.7908H191.216C191.546 17.1703 192.011 16.6564 192.612 16.2492C193.214 15.8421 194.066 15.6384 195.171 15.6384C196.064 15.6384 196.869 15.8323 197.586 16.2202C198.322 16.5886 198.905 17.1606 199.331 17.9362C199.777 18.6924 200 19.6522 200 20.8157V30.2976H196.335V21.0774C196.335 20.2824 196.131 19.6911 195.725 19.3032C195.317 18.8961 194.745 18.6924 194.009 18.6924C193.175 18.6924 192.525 18.9638 192.06 19.5068C191.614 20.0303 191.391 20.7866 191.391 21.7754V30.2976H187.726V21.0774C187.726 20.2824 187.522 19.6911 187.115 19.3032C186.707 18.8961 186.136 18.6924 185.399 18.6924C184.565 18.6924 183.915 18.9638 183.45 19.5068C183.004 20.0303 182.781 20.7866 182.781 21.7754V30.2976H179.116Z" fill="white"/>
<path d="M48.4761 19.3909C48.4761 14.2481 46.4331 9.31594 42.7966 5.67945C39.1601 2.04296 34.2279 6.74394e-07 29.0852 0C23.9424 -6.74392e-07 19.0103 2.04296 15.3738 5.67945C11.7373 9.31594 9.69434 14.2481 9.69434 19.3909H15.7541C17.7621 19.3909 19.3281 17.7081 20.0636 15.8396C20.5464 14.6129 21.2792 13.4855 22.2294 12.5351C24.0477 10.7169 26.5138 9.69543 29.0852 9.69543C31.6566 9.69543 34.1227 10.7169 35.9409 12.5351C37.7592 14.3534 38.7806 16.8195 38.7806 19.3909H48.4761Z" fill="white"/>
<path d="M37.3055 26.8114C38.28 24.4587 38.7816 21.9372 38.7816 19.3909H48.476C48.476 30.1001 39.7944 38.7816 29.0851 38.7816C27.408 38.7816 25.7805 38.5687 24.2285 38.1685C25.1066 37.9422 25.9698 37.6541 26.8113 37.3056C29.1639 36.3311 31.3015 34.9029 33.1021 33.1022C34.9028 31.3016 36.3311 29.164 37.3055 26.8114Z" fill="white"/>
<path d="M0 19.3909C-3.64291e-07 21.9374 0.501559 24.4589 1.47604 26.8115C2.45053 29.1641 3.87884 31.3017 5.67945 33.1024C7.48005 34.9029 9.61769 36.3312 11.9703 37.3057C14.3229 38.2802 16.8444 38.7817 19.3909 38.7817C21.9373 38.7817 24.4588 38.2802 26.8114 37.3057C29.164 36.3312 31.3016 34.9029 33.1023 33.1024C34.9029 31.3017 36.3311 29.1641 37.3056 26.8115C38.2801 24.4589 38.7818 21.9374 38.7818 19.3909H32.722C30.714 19.3909 29.148 21.0736 28.4125 22.942C28.3916 22.9952 28.3701 23.0482 28.3483 23.1012C27.861 24.2775 27.1469 25.3464 26.2465 26.2466C25.3463 27.1469 24.2774 27.8611 23.1011 28.3484C21.9249 28.8356 20.6641 29.0864 19.3909 29.0864C18.1176 29.0864 16.8569 28.8356 15.6806 28.3484C14.5043 27.8611 13.4355 27.1469 12.5351 26.2466C11.6348 25.3464 10.9207 24.2775 10.4334 23.1012C9.9462 21.9249 9.69543 20.6641 9.69543 19.3909H0Z" fill="white"/>
<path d="M0.00195312 19.3909C0.00195312 8.68155 8.68351 0 19.3927 0C21.0695 0 22.6965 0.212808 24.2483 0.612904C20.9185 1.47071 17.8467 3.20669 15.3738 5.67946C11.7374 9.31591 9.69443 14.2481 9.69443 19.3909H0.00195312Z" fill="white"/>
</g>
<defs>
<clipPath id="clip0_2923_14156">
<rect width="200" height="40" fill="white"/>
</clipPath>
</defs>
</svg>
