<svg width="165" height="40" viewBox="0 0 165 40" fill="none" xmlns="http://www.w3.org/2000/svg">
<g clip-path="url(#clip0_2863_29656)">
<path d="M49.7695 28.6079H61.37V25.0957H53.8926V11.8665H49.7695V28.6079Z" fill="#041109"/>
<path d="M68.2426 26.2666C66.5887 26.2666 65.7268 24.8149 65.7268 22.6374C65.7268 20.4598 66.5887 18.9847 68.2426 18.9847C69.8965 18.9847 70.7817 20.4598 70.7817 22.6374C70.7817 24.8149 69.8965 26.2666 68.2426 26.2666ZM68.2659 28.9827C72.1094 28.9827 74.6252 26.2432 74.6252 22.6374C74.6252 19.0315 72.1094 16.292 68.2659 16.292C64.4457 16.292 61.8833 19.0315 61.8833 22.6374C61.8833 26.2432 64.4457 28.9827 68.2659 28.9827Z" fill="#041109"/>
<path d="M81.278 32.7525C83.0484 32.7525 84.6091 32.3544 85.6573 31.4178C86.6124 30.5515 87.2413 29.2403 87.2413 27.4373V16.6198H83.6074V17.9076H83.5608C82.862 16.9008 81.7905 16.2686 80.2065 16.2686C77.2481 16.2686 75.1982 18.7505 75.1982 22.2627C75.1982 25.9388 77.6907 27.9525 80.3695 27.9525C81.8138 27.9525 82.7222 27.3671 83.4211 26.571H83.5142V27.7651C83.5142 29.2168 82.8387 30.0598 81.2314 30.0598C79.9735 30.0598 79.3446 29.5212 79.1349 28.889H75.4545C75.8272 31.3944 77.9935 32.7525 81.278 32.7525ZM81.2547 25.1193C79.8338 25.1193 78.902 23.9486 78.902 22.1456C78.902 20.3193 79.8338 19.1486 81.2547 19.1486C82.8387 19.1486 83.6773 20.5066 83.6773 22.1222C83.6773 23.8081 82.9086 25.1193 81.2547 25.1193Z" fill="#041109"/>
<path d="M94.7133 26.2666C93.0594 26.2666 92.1975 24.8149 92.1975 22.6374C92.1975 20.4598 93.0594 18.9847 94.7133 18.9847C96.3672 18.9847 97.252 20.4598 97.252 22.6374C97.252 24.8149 96.3672 26.2666 94.7133 26.2666ZM94.7366 28.9827C98.5797 28.9827 101.095 26.2432 101.095 22.6374C101.095 19.0315 98.5797 16.292 94.7366 16.292C90.9164 16.292 88.354 19.0315 88.354 22.6374C88.354 26.2432 90.9164 28.9827 94.7366 28.9827Z" fill="#041109"/>
<path d="M102.205 28.6079H106.002V16.6196H102.205V28.6079ZM102.205 14.9572H106.002V11.8665H102.205V14.9572Z" fill="#041109"/>
<path d="M107.649 32.5651H111.446V27.3671H111.492C112.238 28.3739 113.333 28.9827 114.87 28.9827C117.992 28.9827 120.065 26.5007 120.065 22.6139C120.065 19.0081 118.131 16.2686 114.963 16.2686C113.333 16.2686 112.168 16.9944 111.353 18.0715H111.283V16.6198H107.649V32.5651ZM113.892 26.0325C112.261 26.0325 111.329 24.6978 111.329 22.7544C111.329 20.811 112.168 19.3359 113.822 19.3359C115.452 19.3359 116.221 20.6939 116.221 22.7544C116.221 24.7915 115.336 26.0325 113.892 26.0325Z" fill="#041109"/>
<path d="M126.247 28.9827C129.368 28.9827 131.674 27.6247 131.674 25.0022C131.674 21.9349 129.205 21.3964 127.108 21.0451C125.594 20.7642 124.243 20.6471 124.243 19.8042C124.243 19.0549 124.965 18.7037 125.897 18.7037C126.945 18.7037 127.667 19.0315 127.807 20.1086H131.301C131.115 17.7437 129.298 16.2686 125.92 16.2686C123.102 16.2686 120.772 17.5798 120.772 20.1086C120.772 22.9183 122.985 23.4803 125.059 23.8315C126.643 24.1125 128.087 24.2295 128.087 25.3066C128.087 26.0793 127.365 26.5008 126.223 26.5008C124.965 26.5008 124.173 25.9154 124.034 24.7212H120.446C120.563 27.3671 122.752 28.9827 126.247 28.9827Z" fill="#041109"/>
<path d="M136.832 28.9591C138.485 28.9591 139.534 28.3035 140.396 27.1328H140.465V28.6079H144.099V16.6196H140.302V23.3162C140.302 24.7445 139.51 25.7279 138.206 25.7279C136.995 25.7279 136.412 25.0021 136.412 23.6908V16.6196H132.639V24.4869C132.639 27.1562 134.083 28.9591 136.832 28.9591Z" fill="#041109"/>
<path d="M145.751 28.6081H149.548V21.8881C149.548 20.4598 150.247 19.4529 151.435 19.4529C152.577 19.4529 153.112 20.2022 153.112 21.49V28.6081H156.909V21.8881C156.909 20.4598 157.585 19.4529 158.796 19.4529C159.938 19.4529 160.473 20.2022 160.473 21.49V28.6081H164.27V20.811C164.27 18.1183 162.919 16.2686 160.217 16.2686C158.68 16.2686 157.399 16.9242 156.467 18.3759H156.42C155.815 17.0881 154.627 16.2686 153.066 16.2686C151.342 16.2686 150.201 17.0881 149.455 18.329H149.385V16.6198H145.751V28.6081Z" fill="#041109"/>
<path fill-rule="evenodd" clip-rule="evenodd" d="M19.5104 39.3398C30.2313 39.3398 38.9221 30.6039 38.9221 19.8276C38.9221 9.05133 30.2313 0.31543 19.5104 0.31543C8.78956 0.31543 0.0986328 9.05133 0.0986328 19.8276C0.0986328 30.6039 8.78956 39.3398 19.5104 39.3398ZM22.5066 15.3911C24.1612 13.7278 24.1612 11.0311 22.5066 9.36778C20.8518 7.70448 18.169 7.70448 16.5142 9.36778C14.8596 11.0311 14.8596 13.7278 16.5142 15.3911L19.5104 18.4027L22.5066 15.3911ZM23.9241 22.8393C25.5789 24.5026 28.2617 24.5026 29.9164 22.8393C31.5711 21.176 31.5711 18.4793 29.9164 16.816C28.2617 15.1528 25.5789 15.1528 23.9241 16.816L20.928 19.8277L23.9241 22.8393ZM22.5066 30.2875C24.1612 28.6242 24.1612 25.9275 22.5066 24.2642L19.5104 21.2526L16.5142 24.2642C14.8596 25.9275 14.8596 28.6242 16.5142 30.2875C18.169 31.9508 20.8518 31.9508 22.5066 30.2875ZM9.10436 22.8393C7.44966 21.176 7.44966 18.4793 9.10436 16.816C10.7591 15.1528 13.4419 15.1528 15.0967 16.816L18.0928 19.8277L15.0967 22.8393C13.4419 24.5026 10.7591 24.5026 9.10436 22.8393Z" fill="#041109"/>
</g>
<defs>
<clipPath id="clip0_2863_29656">
<rect width="165" height="40" fill="white"/>
</clipPath>
</defs>
</svg>
