<svg width="186" height="40" viewBox="0 0 186 40" fill="none" xmlns="http://www.w3.org/2000/svg">
<path d="M29.7852 17.828C29.2817 18.3364 28.8961 18.95 28.6559 19.6249C28.4157 20.3 28.3268 21.0199 28.3955 21.7333L28.3716 21.7093C28.4423 22.5492 28.3294 23.3943 28.0409 24.1859C27.7525 24.9773 27.2955 25.6961 26.7017 26.2921C26.1079 26.888 25.3916 27.3468 24.6029 27.6361C23.8142 27.9256 22.972 28.0389 22.1353 27.968L22.1592 27.992C21.1583 27.8985 20.1529 28.1171 19.2802 28.618C18.4076 29.1189 17.7101 29.8777 17.283 30.7911C16.8558 31.7044 16.7196 32.7276 16.8932 33.7215C17.0668 34.7152 17.5415 35.6311 18.2527 36.3441C18.9639 37.0572 19.8769 37.5328 20.8672 37.706C21.8576 37.8793 22.877 37.7417 23.7867 37.3123C24.6964 36.8827 25.4518 36.1821 25.9502 35.3059C26.4485 34.4296 26.6655 33.4205 26.5714 32.416L26.5966 32.44C26.526 31.6003 26.6388 30.7551 26.9272 29.9635C27.2156 29.172 27.6728 28.4532 28.2665 27.8572C28.8604 27.2613 29.5766 26.8025 30.3653 26.5132C31.154 26.2237 31.9961 26.1104 32.833 26.1813L32.8077 26.1573C33.6253 26.2311 34.4484 26.0965 35.2005 25.7661C35.9524 25.4357 36.6093 24.9201 37.1099 24.2672C37.6105 23.6143 37.9389 22.8449 38.0643 22.0308C38.1899 21.2165 38.1086 20.3837 37.828 19.6093C37.5474 18.8351 37.0765 18.1444 36.4592 17.6013C35.8418 17.0583 35.0978 16.6804 34.2961 16.5028C33.4945 16.3252 32.661 16.3535 31.8732 16.5851C31.0854 16.8168 30.3686 17.2443 29.7892 17.828H29.7852Z" fill="#9CABA2"/>
<path d="M19.9843 24.8481L19.9591 24.8241C20.6703 24.8959 21.3885 24.8083 22.0619 24.5675C22.7353 24.3267 23.3469 23.9389 23.8526 23.4318C24.3581 22.9247 24.7453 22.3111 24.9856 21.6355C25.2261 20.9599 25.3139 20.2393 25.2428 19.5254L25.2681 19.5494C25.1974 18.7095 25.3103 17.8645 25.5986 17.0729C25.887 16.2814 26.3442 15.5626 26.9379 14.9666C27.5318 14.3707 28.248 13.9119 29.0367 13.6226C29.8255 13.3331 30.6675 13.2198 31.5044 13.2907L31.4791 13.2667C32.4802 13.3611 33.4858 13.1432 34.3589 12.6429C35.2322 12.1425 35.9302 11.384 36.358 10.4709C36.7858 9.55773 36.9225 8.53436 36.7496 7.54034C36.5766 6.54633 36.1023 5.63009 35.3912 4.91657C34.6803 4.20306 33.7673 3.72701 32.7769 3.55338C31.7864 3.37974 30.7667 3.51696 29.8568 3.94632C28.9469 4.37566 28.1912 5.07626 27.6926 5.95254C27.194 6.82881 26.9769 7.8381 27.0709 8.84274L27.047 8.81741C27.1178 9.65726 27.0052 10.5025 26.7169 11.2941C26.4286 12.0858 25.9714 12.8047 25.3777 13.4007C24.7838 13.9966 24.0674 14.4554 23.2787 14.7447C22.4897 15.0341 21.6476 15.1471 20.8107 15.0761L20.8346 15.1014C20.1234 15.0295 19.4051 15.1171 18.7317 15.3579C18.0584 15.5986 17.4468 15.9866 16.9411 16.4937C16.4354 17.0007 16.0484 17.6143 15.808 18.2899C15.5676 18.9655 15.4798 19.6862 15.5509 20.4001L15.527 20.3761C15.5974 21.2158 15.4843 22.0609 15.1959 22.8523C14.9073 23.6437 14.4503 24.3625 13.8566 24.9583C13.2628 25.5542 12.5466 26.0129 11.758 26.3025C10.9694 26.5919 10.1274 26.7054 9.29065 26.6347L9.31457 26.6587C8.31352 26.5643 7.30783 26.7822 6.43468 27.2826C5.56154 27.783 4.86344 28.5414 4.43563 29.4546C4.0078 30.3678 3.87107 31.3911 4.04409 32.3851C4.21711 33.3791 4.69146 34.2954 5.40242 35.0089C6.11339 35.7225 7.02636 36.1985 8.01682 36.3721C9.00728 36.5457 10.027 36.4085 10.9369 35.9791C11.8468 35.5498 12.6026 34.8493 13.1011 33.973C13.5997 33.0966 13.8168 32.0874 13.7228 31.0827L13.748 31.1067C13.6773 30.2669 13.7903 29.4218 14.0787 28.6302C14.367 27.8387 14.8242 27.1199 15.4179 26.5239C16.0118 25.9281 16.728 25.4693 17.5166 25.1799C18.3054 24.8905 19.1475 24.7771 19.9843 24.8481Z" fill="#9CABA2"/>
<path d="M11.0805 22.1721C11.5841 21.6638 11.9696 21.0502 12.2096 20.3751C12.4496 19.7001 12.5381 18.9801 12.4689 18.2667L12.4941 18.2907C12.4234 17.4507 12.5363 16.6053 12.8249 15.8135C13.1134 15.0218 13.5708 14.3029 14.1649 13.7069C14.759 13.1109 15.4755 12.6523 16.2646 12.363C17.0536 12.0737 17.8961 11.9608 18.7331 12.0321L18.7078 12.0081C19.7085 12.1022 20.7138 11.8842 21.5866 11.3839C22.4593 10.8836 23.1569 10.1253 23.5846 9.21239C24.0121 8.29951 24.1487 7.27651 23.9757 6.28287C23.8028 5.28923 23.3285 4.37334 22.6178 3.66008C21.9072 2.94683 20.9944 2.47094 20.0044 2.29731C19.0143 2.12367 17.9949 2.26076 17.0854 2.68986C16.1757 3.11895 15.4201 3.81918 14.9217 4.69504C14.4231 5.57091 14.2058 6.57979 14.2996 7.58408L14.2757 7.56008C14.3464 8.39988 14.2335 9.24504 13.945 10.0366C13.6566 10.8281 13.1996 11.5469 12.6058 12.1428C12.012 12.7388 11.2957 13.1975 10.507 13.4869C9.71833 13.7763 8.8762 13.8897 8.0394 13.8187L8.06331 13.8427C7.24567 13.7691 6.42274 13.9039 5.67079 14.2345C4.91885 14.565 4.2622 15.0807 3.76172 15.7338C3.26123 16.3867 2.9331 17.1561 2.80771 17.9702C2.68233 18.7845 2.76376 19.6173 3.04445 20.3914C3.32513 21.1657 3.79602 21.8562 4.41345 22.3991C5.03087 22.9422 5.77487 23.3199 6.57651 23.4975C7.37813 23.675 8.21145 23.6466 8.99925 23.415C9.78704 23.1833 10.5038 22.7558 11.0831 22.1721H11.0805Z" fill="#9CABA2"/>
<path d="M52.2354 8.87329H56.1812V28.144H52.2354V8.87329Z" fill="#9CABA2"/>
<path d="M58.4162 21.5452C58.4108 20.1604 58.8149 18.805 59.5775 17.6508C60.3401 16.4967 61.4269 15.5956 62.7002 15.0619C63.9735 14.528 65.3759 14.3855 66.73 14.6523C68.0841 14.9191 69.3288 15.5831 70.3065 16.5604C71.2842 17.5376 71.9509 18.7842 72.2222 20.142C72.4935 21.4999 72.357 22.908 71.8303 24.188C71.3035 25.4679 70.41 26.5623 69.2631 27.3322C68.116 28.1022 66.7672 28.5132 65.3872 28.5132C64.4713 28.5238 63.5624 28.3508 62.7137 28.0047C61.865 27.6586 61.0937 27.1462 60.4447 26.4975C59.7955 25.8487 59.2819 25.0766 58.9337 24.2263C58.5853 23.376 58.4094 22.4646 58.4162 21.5452ZM68.4124 21.5452C68.3959 20.9483 68.2045 20.3695 67.8621 19.8811C67.5196 19.3928 67.0413 19.0166 66.487 18.7996C65.9326 18.5826 65.3269 18.5343 64.7454 18.661C64.1639 18.7876 63.6324 19.0834 63.2175 19.5115C62.8027 19.9395 62.5227 20.4808 62.4128 21.0678C62.3028 21.6546 62.3675 22.261 62.5991 22.8111C62.8306 23.3612 63.2186 23.8306 63.7144 24.1606C64.2104 24.4906 64.7923 24.6666 65.3872 24.6666C65.7947 24.6775 66.2 24.6035 66.5777 24.4494C66.9553 24.2952 67.297 24.0643 67.5812 23.7711C67.8654 23.4778 68.0861 23.1286 68.229 22.7455C68.3721 22.3624 68.4346 21.9538 68.4124 21.5452Z" fill="#9CABA2"/>
<path d="M88.0843 14.9452V27.4786C88.0843 31.9132 84.638 33.7879 81.1399 33.7879C79.9083 33.8804 78.675 33.6307 77.5753 33.0663C76.4758 32.5018 75.5523 31.6443 74.9062 30.5879L78.2728 28.6346C78.5444 29.1852 78.9771 29.6395 79.5129 29.9367C80.0489 30.2338 80.6624 30.3596 81.2714 30.2972C81.6607 30.3514 82.0571 30.317 82.4314 30.1966C82.8055 30.0762 83.148 29.8728 83.4334 29.6018C83.7188 29.3306 83.9397 28.9986 84.08 28.63C84.2202 28.2616 84.276 27.8663 84.2434 27.4732V26.2666C83.7814 26.8339 83.1933 27.2847 82.5263 27.5827C81.8592 27.8807 81.1319 28.0176 80.4025 27.9826C78.6672 27.9276 77.0212 27.1972 75.813 25.9458C74.6048 24.6944 73.9292 23.0203 73.9292 21.2779C73.9292 19.5355 74.6048 17.8614 75.813 16.61C77.0212 15.3586 78.6672 14.6282 80.4025 14.5732C81.1319 14.5382 81.8592 14.6751 82.5263 14.9731C83.1933 15.2711 83.7814 15.7219 84.2434 16.2892V14.9426L88.0843 14.9452ZM84.2448 21.2799C84.2713 20.6418 84.1069 20.0102 83.7727 19.4666C83.4386 18.9228 82.9499 18.492 82.3697 18.2295C81.7896 17.9668 81.1444 17.8846 80.5172 17.9931C79.89 18.1016 79.3095 18.396 78.8504 18.8386C78.3913 19.281 78.0747 19.8511 77.9412 20.4756C77.8078 21.1002 77.8636 21.7506 78.1017 22.343C78.3397 22.9354 78.7489 23.4428 79.2766 23.7999C79.8043 24.157 80.4264 24.3474 81.0628 24.3466C81.4775 24.3756 81.8935 24.3172 82.2842 24.1751C82.6749 24.033 83.0316 23.8102 83.3314 23.5214C83.6311 23.2324 83.8673 22.8838 84.0246 22.4976C84.1819 22.1116 84.257 21.6968 84.2448 21.2799Z" fill="#9CABA2"/>
<path d="M90.319 21.5452C90.3136 20.1604 90.7176 18.805 91.4803 17.6508C92.2429 16.4967 93.3297 15.5956 94.603 15.0619C95.8763 14.528 97.2788 14.3855 98.6328 14.6523C99.9869 14.9191 101.232 15.5831 102.209 16.5604C103.187 17.5376 103.854 18.7842 104.125 20.142C104.396 21.4999 104.26 22.908 103.733 24.188C103.206 25.4679 102.313 26.5623 101.166 27.3322C100.019 28.1022 98.67 28.5132 97.29 28.5132C96.3741 28.5238 95.4651 28.3508 94.6166 28.0047C93.7679 27.6586 92.9965 27.1462 92.3475 26.4975C91.6984 25.8487 91.1847 25.0766 90.8365 24.2263C90.4882 23.376 90.3123 22.4646 90.319 21.5452ZM100.315 21.5452C100.299 20.9483 100.107 20.3695 99.7649 19.8811C99.4224 19.3928 98.9441 19.0166 98.3898 18.7996C97.8354 18.5826 97.2296 18.5343 96.6482 18.661C96.0667 18.7876 95.5353 19.0834 95.1204 19.5115C94.7056 19.9395 94.4255 20.4808 94.3155 21.0678C94.2055 21.6546 94.2703 22.261 94.5019 22.8111C94.7335 23.3612 95.1214 23.8306 95.6172 24.1606C96.1132 24.4906 96.695 24.6666 97.29 24.6666C97.6975 24.6775 98.1029 24.6035 98.4804 24.4494C98.8582 24.2952 99.1999 24.0643 99.4841 23.7711C99.7682 23.4778 99.9889 23.1286 100.132 22.7455C100.275 22.3624 100.337 21.9538 100.315 21.5452Z" fill="#9CABA2"/>
<path d="M106.101 11.408C106.101 10.9381 106.24 10.4787 106.5 10.088C106.76 9.69723 107.13 9.39268 107.563 9.21285C107.995 9.03301 108.471 8.98596 108.931 9.07764C109.39 9.16932 109.812 9.39561 110.143 9.72791C110.474 10.0602 110.699 10.4835 110.791 10.9445C110.882 11.4053 110.835 11.8831 110.656 12.3172C110.477 12.7514 110.173 13.1225 109.784 13.3836C109.395 13.6447 108.937 13.784 108.469 13.784C107.843 13.7777 107.244 13.5255 106.801 13.0812C106.359 12.6369 106.107 12.0362 106.101 11.408ZM106.5 14.9453H110.447V28.1453H106.494L106.5 14.9453Z" fill="#9CABA2"/>
<path d="M127.485 21.5453C127.53 22.4177 127.404 23.2905 127.112 24.1136C126.82 24.9366 126.369 25.6937 125.785 26.3413C125.201 26.9888 124.495 27.5141 123.707 27.8869C122.92 28.2596 122.067 28.4725 121.198 28.5133C120.467 28.5533 119.736 28.4296 119.058 28.151C118.38 27.8724 117.773 27.446 117.28 26.9026V33.424H113.334V14.9453H117.28V16.1853C117.773 15.6424 118.381 15.2162 119.058 14.938C119.736 14.6596 120.467 14.536 121.198 14.576C122.067 14.6166 122.921 14.8294 123.708 15.2022C124.495 15.575 125.202 16.1004 125.786 16.7481C126.37 17.3958 126.821 18.1532 127.113 18.9765C127.404 19.7997 127.531 20.6728 127.485 21.5453ZM123.539 21.5453C123.523 20.9276 123.327 20.3281 122.973 19.8218C122.62 19.3157 122.126 18.9253 121.553 18.6997C120.98 18.474 120.353 18.4229 119.751 18.553C119.149 18.683 118.599 18.9884 118.169 19.4308C117.739 19.8733 117.448 20.433 117.334 21.0404C117.22 21.6476 117.286 22.275 117.525 22.8445C117.765 23.414 118.166 23.8998 118.679 24.2416C119.192 24.5832 119.794 24.7654 120.41 24.7653C120.833 24.7842 121.255 24.7132 121.648 24.5569C122.042 24.4008 122.398 24.1628 122.693 23.8588C122.989 23.5546 123.217 23.1914 123.362 22.7928C123.508 22.3941 123.568 21.9689 123.539 21.5453Z" fill="#9CABA2"/>
<path d="M139.661 24.1839C139.661 27.2199 137.031 28.5132 134.191 28.5132C133.043 28.6175 131.891 28.374 130.882 27.8139C129.874 27.2539 129.057 26.4032 128.535 25.3719L131.954 23.4186C132.092 23.8952 132.389 24.31 132.795 24.5934C133.201 24.8768 133.693 25.0119 134.186 24.9759C135.132 24.9759 135.606 24.6852 135.606 24.1586C135.606 22.7052 129.134 23.4719 129.134 18.9052C129.134 16.0266 131.555 14.5759 134.291 14.5759C135.319 14.5432 136.337 14.788 137.239 15.2847C138.141 15.7815 138.894 16.5119 139.419 17.3999L136.052 19.2212C135.905 18.8755 135.659 18.581 135.345 18.3744C135.032 18.1679 134.665 18.0586 134.291 18.0599C133.606 18.0599 133.185 18.3266 133.185 18.7986C133.19 20.3039 139.661 19.2999 139.661 24.1839Z" fill="#9CABA2"/>
<path d="M154.075 14.9453V28.1453H150.129V26.904C149.673 27.4517 149.095 27.8833 148.441 28.1633C147.788 28.4433 147.078 28.5637 146.369 28.5146C143.712 28.5146 141.453 26.6146 141.453 23.048V14.9453H145.399V22.468C145.366 22.7824 145.402 23.1002 145.504 23.3993C145.605 23.6985 145.771 23.9718 145.989 24.2002C146.207 24.4286 146.471 24.6066 146.765 24.722C147.057 24.8373 147.372 24.8872 147.687 24.868C149.134 24.868 150.133 24.024 150.133 22.1493V14.9493L154.075 14.9453Z" fill="#9CABA2"/>
<path d="M176.7 20.04V28.144H172.754V20.3826C172.754 19.0626 172.123 18.2186 170.861 18.2186C169.546 18.2186 168.808 19.1426 168.808 20.7V28.144H164.864V20.3826C164.864 19.0626 164.233 18.2186 162.969 18.2186C161.654 18.2186 160.918 19.1426 160.918 20.7V28.144H156.972V14.944H160.918V16.1573C161.327 15.619 161.864 15.1921 162.479 14.9157C163.096 14.6392 163.77 14.522 164.443 14.5746C165.118 14.5414 165.79 14.6845 166.394 14.9897C166.998 15.2948 167.512 15.7518 167.888 16.316C168.325 15.7257 168.904 15.2564 169.571 14.9518C170.238 14.6473 170.971 14.5176 171.702 14.5746C174.722 14.576 176.7 16.74 176.7 20.04Z" fill="#9CABA2"/>
<path d="M180.038 14.8639C181.654 14.8639 182.966 13.5482 182.966 11.9252C182.966 10.3023 181.654 8.98657 180.038 8.98657C178.421 8.98657 177.109 10.3023 177.109 11.9252C177.109 13.5482 178.421 14.8639 180.038 14.8639Z" fill="#9CABA2"/>
</svg>
